<svg xmlns="http://www.w3.org/2000/svg" viewBox="0 0 490.52 930.23"><path d="M1.97 0c59.2.33 118.4 0 177.6.36 43.63.15 87.27.15 130.91.3 60.01.55 120.03.5 180.04.56-.21 106.32-1.22 212.65-1 318.98-.29 109.3-.77 218.6-.95 327.9 0 94.05-.24 188.09-.3 282.13-43.27-.24-86.53.1-129.8-.2-79.99-.37-159.99-.18-239.99-.63-39.5-.12-78.99-.25-118.48-.21.01-111 .3-222.01.43-333.02.56-165.67.71-331.37.98-497.05.43-33.04.32-66.08.56-99.12z"/><path fill="#fff" d="M8.92 4.42c2.71-.01 5.41 0 8.12 0-.87 1.9-1.77 3.78-2.71 5.64-1.81-1.87-3.66-3.71-5.41-5.64z"/><path fill="#fff" d="M19.56 4.35c8.33.25 16.66.03 24.99.18-1.35 9.46-4.47 18.61-9.45 26.77-6.37-6.51-12.68-13.08-19.16-19.48 1.12-2.54 2.35-5.01 3.62-7.47z"/><path fill="#fff" d="M48.04 4.53c2.51-.12 5.02.02 7.53-.08 5.59 6.94 11.13 13.91 16.68 20.89-7.49-.2-14.98 1.02-22.11 3.27 1.06-8.08.1-16.27-2.1-24.08z"/><path fill="#fff" d="M58.35 4.5c1.88.01 3.77.03 5.65.03 3.54 8.58 9.62 15.74 16.56 21.77-1.92-.3-3.83-.65-5.74-.99C69.44 18.29 63.8 11.47 58.35 4.5z"/><path fill="#fff" d="M66.19 4.51c10.52.1 21.05.2 31.57.06 6.88 10.77 13.9 21.45 20.96 32.09-4.8-.38-9.82-.53-14.33-2.35-5.67-3.58-12.05-5.74-18.52-7.37-8.83-4.98-15.33-13.38-19.68-22.43z"/><path fill="#fff" d="M100.23 4.71c8.27-.07 16.53.06 24.79.03 1.7 10.57-.12 21.47-4.39 31.23-6.74-10.46-13.56-20.87-20.4-31.26z"/><path fill="#fff" d="M128.17 4.78c5.23.03 10.46.13 15.7.09 5.07 13.09 14.21 24.55 26.09 32.09.1 2.96.11 5.92.1 8.89-5.88 1.08-11.52 3.15-16.94 5.63-8.1-15.67-16.46-31.21-24.91-46.7z"/><path fill="#fff" d="M146 4.89c7.5.08 14.99.21 22.48.14 1.48.05 3.07-.19 4.42.58 6.89 3.43 13.5 7.38 20.44 10.7-1.36 2.41-2.98 4.89-2.96 7.76-.11 6.06.1 12.13-.15 18.2-20.28-3.18-36.62-18.81-44.23-37.38z"/><path fill="#fff" d="M176.28 5.06c14.22.03 28.44.12 42.66.01v9.6c-6.73-6.18-17.61-5.76-24.41.08-6.06-3.3-12.2-6.44-18.29-9.69z"/><path fill="#fff" d="M221.01 16.92c-.2-3.95 0-7.91-.1-11.86 17.51.11 35.02.08 52.53.04-.1 30.19-.23 60.37-.32 90.56-7.84-4.37-15.67-9.54-24.68-11.02-9.25.34-17.27 5.7-25.09 10.11.14-22.91.13-45.82.14-68.73 0-3.23-1.72-6.07-2.51-9.1z"/><path fill="#fff" d="M275.52 5.1c5.82.06 11.65.05 17.48.01 0 1.81 0 3.62.1 5.43-6.67-.83-13.75 1.52-17.62 7.22.1-4.22.1-8.44 0-12.66z"/><path fill="#fff" d="M295.16 5.11c4.83.02 9.66.13 14.49.02 16.42 20.43 32.97 40.75 49.51 61.09-12.61.32-25.67-1.51-36.75-7.89-6.25-3.55-11.72-8.42-15.93-14.26.1-6.01 0-12.01.1-18.02-.1-6.84-4.88-13.07-11.34-15.2 0-1.91-.1-3.82 0-5.74z"/><path fill="#fff" d="M312.54 5.23c11 .08 22 .03 32.99.16 15.75 14.84 22.66 39.11 15.32 59.76-15.97-20.08-32.46-39.75-48.31-59.92z"/><path fill="#fff" d="M348.78 5.29c6.64.13 13.28.12 19.92.03-4.4 3.12-9.64 4.71-14.7 6.42-1.68-2.19-3.55-4.25-5.22-6.45z"/><path fill="#fff" d="M373.13 5.39c2.24.03 4.48.04 6.73.04-.49 2.04-1.03 4.07-1.54 6.11-6.34 3.4-12.28 7.69-17.11 13.06-1.69-3.87-3.71-7.57-6.04-11.08 6.36-1.79 12.34-4.71 17.96-8.13z"/><path fill="#fff" d="M382.14 5.36c6.7.21 13.41.09 20.12.15 3.57 18.54 7.21 37.07 10.76 55.62-2.64-.94-5.36-1.63-8.1-2.2 3.55-18.33-1.11-39.36-15.99-51.58-2.77.81-5.5 1.76-8.12 2.95.41-1.66.84-3.31 1.33-4.94z"/><path fill="#fff" d="M404.28 5.49c8.16.2 16.35-.12 24.5.28 9.42 19.28 8.59 43.79-3.93 61.53-3.02-2.11-6.22-3.94-9.56-5.46-3.75-18.77-7.11-37.62-11.01-56.35z"/><path fill="#fff" d="M6.47 5.18c10.17 10 19.99 20.37 30.04 30.49-2.34 1.76-4.58 3.64-6.69 5.66-7.68-8.13-15.65-15.98-23.4-24.05.06-4.03.07-8.06.05-12.1z"/><path fill="#fff" d="M433.32 5.69c9.55-.06 19.1.07 28.65.13-4.84 11.47-9.41 23.06-14.32 34.5-1.68 3.73-2.89 7.72-5.27 11.09-2.11-4.91-6.34-9.55-5.27-15.24.41-8.51-1.03-17.02-3.78-25.06-.68-1.75 0-3.63 0-5.42z"/><path fill="#fff" d="M464.05 5.89c7.47.02 14.93.16 22.4.16-12.35 13.63-25.78 26.3-38.63 39.47 5.39-13.22 11.01-26.34 16.23-39.63z"/><path fill="#fff" d="M36.38 33.02c5.38-7.95 8.21-17.22 10.16-26.54 1.88 7.44 2.44 15.27 1.35 22.86-3.17 1.54-6.35 3.08-9.41 4.82-.53-.28-1.58-.85-2.1-1.14z"/><path fill="#fff" d="M127.49 8.07c8.2 14.65 15.93 29.56 23.86 44.35-1.02.67-2.04 1.34-3.07 2.01-1.95-7.15-5.46-13.98-10.66-19.31-7.81.82-15.22 3.98-21.96 7.91-.84-1.64-1.71-3.27-2.54-4.92 2.61.37 5.23.65 7.84.99 5.6-9.24 7.26-20.38 6.53-31.03z"/><path fill="#fff" d="M361.95 26.63c7.04-7.48 15.75-13.3 25.39-16.84-8.51 31.43-17.73 62.66-26.26 94.09-7.99-10.43-14.03-22.82-15.03-36.07 5.25.52 10.53.32 15.79.35 5.49-13.13 5.15-28.32.11-41.53z"/><path fill="#fff" d="M362.95 104.78c8.66-31.51 17.9-62.86 26.34-94.43 13.6 12.75 17.06 33.04 13.11 50.67-5.51 6.84-9.5 14.87-11.68 23.37-.51 2.72-2.77 4.51-4.52 6.46-6.36 6.58-14.47 11.37-23.25 13.93z"/><path fill="#fff" d="M485.75 10.03c0 4.13-.1 8.26 0 12.39-17.47 17.55-34.8 35.25-52.13 52.93-1.97-2.19-4.12-4.21-6.31-6.17 19.4-19.79 39.23-39.17 58.43-59.15z"/><path fill="#fff" d="M202.27 12.93c5.1-1.58 11.22-.57 15.08 3.27 2.69 2.91 4.09 6.91 4.1 10.86 0 11.66-.18 23.33-.1 34.99-9.75-5.68-19.39-11.55-29.1-17.31.1-6.56 0-13.12.1-19.68.1-5.66 4.42-10.85 9.9-12.13z"/><path fill="#fff" d="M275.57 23.21c2.01-10.22 15.86-13.78 23.67-7.84 2.92 2.42 4.59 6.08 5.24 9.75.16 6.5 0 13 .1 19.5-5.69.02-11.38-.11-17.07-.02-4.08.19-6.84 3.67-8.83 6.85-2.96 6.99-.36 16.76 7.48 19.07 6.11.5 12.28.08 18.42.24v12.73c-8.6 5.11-17.25 10.16-25.78 15.38-1.15-.68-2.29-1.36-3.43-2.04.18-24.54.18-49.08.25-73.62z"/><path fill="#fff" d="M6.34 33.14c-.29-3.51 2.04-6.4 3.45-9.41 5.79 5.94 11.62 11.85 17.41 17.78-5.95 6.08-13.09 11-21.02 14.11-.03-7.49.15-14.99.16-22.48z"/><path fill="#fff" d="M483.46 29.54c.73-1.24 1.45-2.47 2.21-3.69.1 1.39.1 2.78.1 4.17-.57-.12-1.72-.36-2.3-.48z"/><path fill="#fff" d="M38.97 36.5c18.85-12.52 44.75-11.75 64.08-.69-29.57 13.86-59.29 27.4-88.85 41.28 3.33-15.72 10.96-31.55 24.77-40.59z"/><path fill="#fff" d="M478.98 32.18c2.25-.17 4.51-.32 6.78-.46-.1 8.37-.1 16.74-.1 25.12-13.49 5.61-27 11.16-40.46 16.84-3.59 1.36-7.01 3.28-10.82 3.98 14.68-15.32 29.7-30.33 44.56-45.48z"/><path fill="#fff" d="M102.51 53.01c2.16-5.11 3.22-10.58 3.46-16.1 1.55.38 3.13.63 4.65 1.15 1.28 1.91 2.14 4.06 3.25 6.07-4.08 2.58-7.66 5.81-11.36 8.88z"/><path fill="#fff" d="M87.97 85.27c3.68-23.95 24.45-42.99 47.65-47.96-12.56 29.99-25 60.03-37.4 90.08-7.75-12.43-12.32-27.43-10.25-42.12z"/><path fill="#fff" d="M14.82 78.91c29.75-13.58 59.33-27.52 89.04-41.18-.75 17-11.94 32.02-26.19 40.56-18.65 11.65-44.3 13.38-62.85.62z"/><path fill="#fff" d="M137.66 37.93c5.89 7.55 9.62 16.75 10.27 26.33 1.19 16.5-4.45 33.43-15.4 45.84-8.25 9.78-19.99 16.52-32.63 18.56 12.59-30.24 24.98-60.56 37.76-90.73z"/><path fill="#fff" d="M172 38c4.2 2.32 8.69 4.19 13.41 5.14 1.96.4 4.01.77 5.67 1.98-6.35-.47-12.69-.46-19.02.29.1-2.47 0-4.94-.1-7.41z"/><path fill="#fff" d="M436.29 44.42c1.65 2.66 2.89 5.57 4.45 8.29-3.38 3.31-6.69 6.69-9.85 10.21-.26.02-.78.06-1.04.09 3.31-5.73 5.35-12.09 6.44-18.59z"/><path fill="#fff" d="M11.15 55.71c5.17-2.56 9.9-5.87 14.33-9.53-3.92 5.35-7.08 11.2-9.58 17.34-3.49 4.01-6.95 8.05-9.86 12.53.21-3.29-.25-6.66.42-9.89 1.47-3.51 2.57-7.28 4.69-10.45z"/><path fill="#fff" d="M286.97 46.72c5.84-.2 11.71.03 17.56-.06v21.97c-5.87-.1-11.75.15-17.61-.12-9.89-2.59-9.67-19.13.1-21.79z"/><path fill="#fff" d="M148.85 56.32c12.18-7.8 27.15-10.79 41.45-9.1-.1 5 0 9.99 0 14.99-8.35 5.26-16.67 10.58-25.01 15.85-2.26-1.32-4.55-2.58-6.72-4.03-.47.56-.94 1.11-1.4 1.68 2.02 1.19 4.05 2.37 6.09 3.54-5.55 3.56-11.03 7.2-16.71 10.53 3.65-10.7 4.64-22.37 2.26-33.46z"/><path fill="#fff" d="M192.29 47.1c9.65 5.81 19.34 11.55 29.03 17.31v4.67c-9.73-5.51-19.29-11.39-29.05-16.92V47.1z"/><path fill="#fff" d="M306.47 47.55c4.27 5.17 9.51 9.47 15.3 12.85-5.42 2-10.65 4.56-15.32 7.97.13-6.94.1-13.88 0-20.82z"/><path fill="#fff" d="M192.28 54.49c9.4 5.56 18.92 10.91 28.2 16.65-9.41.06-18.81-.02-28.22.04 0-5.56.1-11.12 0-16.69z"/><path fill="#fff" d="M5.92 59.84c-.84-1 .29-3.4 1.69-2.72 1 1.03-.3 3.31-1.69 2.72z"/><path fill="#fff" d="M436.9 79.39c16.26-6.86 32.62-13.5 48.84-20.46-.12 9.46-.13 18.93-.1 28.39-14.31 5.14-30.77 5.17-44.51-1.7-1.63-1.93-2.82-4.18-4.26-6.23z"/><path fill="#fff" d="M406.28 61.27c13.34 2.72 24.78 11.89 31.66 23.48 9.03 15.07 12.44 34 6.98 50.93-2.41 7.18-5.95 14.17-11.27 19.64-2.83-10.81-6.17-21.47-9.28-32.19-6.33-20.53-11.89-41.29-18.09-61.86z"/><path fill="#fff" d="M306.49 70.78c5.35-3.9 11.35-6.81 17.56-9.07 6.46 2.84 13.25 4.95 20.28 5.83-2.39 2.96-4.74 6.07-7.77 8.4-10 5.92-20.09 11.71-30.09 17.63.11-7.6.1-15.2 0-22.79z"/><path fill="#fff" d="M391.89 88.27c2.16-9.52 6.15-18.79 12.52-26.25 8.94 31.3 18.12 62.53 27.37 93.74-13.93-5.14-27.09-14-34.61-27.09-7.15-12.07-8.15-26.9-5.28-40.4z"/><path fill="#fff" d="M167.24 79.18c7.77-4.72 15.36-9.74 23.09-14.53-.11 9.35-.13 18.7-.1 28.06-7.72-4.42-15.34-9.02-23.02-13.53z"/><path fill="#fff" d="M6.18 81.04c1.74-4.6 4.9-8.56 7.89-12.41-.8 3.52-1.73 7.02-2.65 10.51 2.97 2.22 6.31 3.84 9.44 5.79 2.97 14.29 5.33 28.72 8.2 43.04 1.14 4.36.33 8.86.64 13.29.45 6.9 2.3 13.67 5.13 19.98-11.44-5.86-22.4-14.01-28.75-25.41-.1-18.26-.1-36.53.1-54.79z"/><path fill="#fff" d="M306.52 112.61c12.59-13.83 25.26-27.62 37.68-41.59 1.06 8.61 4.52 16.62 8.44 24.26-2.98 7.49-7.7 14.21-13.18 20.08-11.02 0-22.03-.18-33.05-.14 0-.66.1-1.96.11-2.61z"/><path fill="#fff" d="M81.37 78.36c2.91-2.05 5.72-4.26 8.36-6.65-1.5 3.75-2.87 7.58-3.5 11.59-1.58-1.69-3.2-3.33-4.86-4.94z"/><path fill="#fff" d="M192.23 73.12c9.7.06 19.4.07 29.1-.01-.1 9.72-.11 19.44-.1 29.16-5.08-.1-10.16-.1-15.24-.11-4.55-2.87-9.26-5.46-13.86-8.24.1-6.93.1-13.87 0-20.8z"/><path fill="#fff" d="M71.58 83.94c2.74-1.38 5.45-2.84 8.03-4.5 1.99 2.04 3.94 4.1 5.97 6.09-.07 4.3-.05 8.61-.01 12.91-4.49-5-9.27-9.72-13.99-14.5z"/><path fill="#fff" d="M145.39 93.06c6.66-4.2 13.32-8.42 19.98-12.61 8.13 5.01 16.47 9.67 24.65 14.61-14.62 12.8-35.05 19.25-54.23 14.81 3.65-5.33 7.28-10.74 9.6-16.81z"/><path fill="#fff" d="M306.49 96.02c8.61-5.14 17.27-10.18 25.99-15.13-8.61 9.7-17.52 19.12-26.02 28.93.1-4.6.1-9.2 0-13.8z"/><path fill="#fff" d="M58.02 90.7c3.56-2.64 7.5-4.77 11.8-5.92l2.13 2.53c-2.91 10.54-5.81 21.08-8.72 31.62-.34 1.58-2.32 1.73-3.47 2.49-2.61 6.94-3.31 14.36-3.37 21.71-2.1 8.06-4.47 16.06-6.58 24.12-3.78-1.87-7.73-3.43-11.83-4.43-5.43-10.57-7.89-22.97-5.4-34.71 2.99-15.26 13.03-28.4 25.44-37.41z"/><path fill="#fff" d="M23.15 85.79c7.91 3 16.4 4.39 24.86 4.1.74 1.48 1.47 2.97 2.22 4.44-9.27 8.43-16.31 19.35-19.49 31.51-2.62-13.33-4.89-26.73-7.59-40.05z"/><path fill="#fff" d="M280.82 100.07c7.84-4.84 15.79-9.51 23.72-14.21 0 2.98 0 5.97-.1 8.96-5.67 3.04-11.03 6.65-16.79 9.51-2.36-1.3-4.63-2.74-6.85-4.26z"/><path fill="#fff" d="M238.82 88.83c2.87-.98 5.78-1.96 8.82-2.22 3.39.19 6.57 1.55 9.63 2.91-3.14 2.83-6.25 5.68-9.22 8.68-3-3.2-6.11-6.29-9.23-9.37z"/><path fill="#fff" d="M50.14 89.47c2.38-.22 4.76-.5 7.13-.75-1.84 1.41-3.7 2.8-5.62 4.09-.38-.83-1.13-2.5-1.51-3.34z"/><path fill="#fff" d="M73.52 88.85c4.16 4.26 8.37 8.48 12.41 12.84 1.48 7.13 4.78 14 3.93 21.49-7.8-2.88-16.45-4.72-24.72-2.99 2.58-10.5 5.89-20.81 8.38-31.34z"/><path fill="#fff" d="M223.39 97.22c4.39-2.66 8.8-5.31 13.47-7.47 3.28 3.47 6.87 6.67 9.95 10.32.19 2.69 0 5.39 0 8.08-2.2 2.13-4.34 4.3-6.45 6.51-5.77-4.03-11.33-8.35-17.01-12.51v-4.93z"/><path fill="#fff" d="M464.81 93.26c7.07-.39 14.1-1.51 20.87-3.67-.11 5.91-.1 11.82 0 17.72-6.03-5.91-13.18-10.55-20.85-14.05z"/><path fill="#fff" d="M249.27 100.03c3.13-3.46 6.72-6.47 10.14-9.63 8.49 4.53 16.76 9.87 23.06 17.25-4.8 2.79-9.72 5.4-14.33 8.51 3.65 3.25 8.22 5.22 12.24 7.97-6.72 6.89-15.02 11.87-23.37 16.51 0-8.03.17-16.08 0-24.11-2.2-3.28-5.4-5.79-7.99-8.77.13-2.56-.35-5.25.28-7.73z"/><path fill="#fff" d="M443.45 90.73c16.03.25 31.22 8.18 42.19 19.6.11 10.6-.34 21.21 0 31.8-12.16-8.92-23.95-18.33-36.05-27.31-.8-8.29-2.6-16.53-6.17-24.09z"/><path fill="#fff" d="M360.95 107.39c9.31-1.94 17.62-6.95 24.87-12.96-7.41 17.68-23.79 30.97-42.24 35.67-5.3.27-10.67-.43-15.92.56-2.37.47-4.76.88-7.18.64 7-3.66 13.86-7.75 19.42-13.43.37-.1 1.11-.31 1.47-.41.97-2.65 3.12-4.53 4.77-6.73 3.2-4.06 5.74-8.59 7.98-13.24 2.14 3.39 4.49 6.64 6.83 9.9z"/><path fill="#fff" d="M192.22 96.34c3.29 2 6.64 3.92 9.96 5.87-3.33 0-6.66-.1-9.99 0v-5.87z"/><path fill="#fff" d="M289.66 105.86c4.9-2.93 9.8-5.88 14.84-8.56-.19 6.12.1 12.24-.26 18.35-5.33-2.46-9.5-6.85-14.58-9.79z"/><path fill="#fff" d="M384.33 101.99c.75-1.73 2.44-2.61 3.98-3.5v7.36c-9.39 9.41-18.75 18.84-28.02 28.38-1.12-.5-2.24-1-3.35-1.49 1.36-2.57 1.52-6.23 4.34-7.75 9.37-5.64 17.66-13.4 23.02-23z"/><path fill="#fff" d="M186.24 100.66c1.21-1.19 2.67 0 3.98.36-.1 4.74-.1 9.48-.1 14.21-5.76-.1-11.53-.1-17.29 0-1.72-1.68-3.46-3.35-5.2-5.01 6.67-2.15 12.85-5.53 18.57-9.52z"/><path d="M263.95 100.49c2.24-1.2 5.35-.54 6.35 1.96 1.77 3.32-2.19 7.41-5.56 5.85-3.32-.98-3.64-6.08-.79-7.81z"/><path fill="#fff" d="M264.59 102.44c.72-.14 2.16-.44 2.88-.59.38.66 1.15 1.99 1.54 2.65-1.02 1.74-2.83 2.24-4.71 1.87 0-1.3-.35-2.71.29-3.93z"/><path fill="#fff" d="M281.7 103.34c1.4 0 3.93 1.24 3.63 2.9-1.61.65-3.44-1.47-3.63-2.9z"/><path fill="#fff" d="M192.22 104.14c4.47.1 8.95.1 13.42.1 5.37 3.6 11.33 6.27 16.48 10.2-2.33 1.34-5.02.88-7.56.93-7.46 0-14.93-.1-22.39-.11.1-3.7 0-7.4.1-11.1z"/><path fill="#fff" d="M210.01 104.27c3.72-.1 7.45 0 11.19 0v6.77c-3.79-2.17-7.6-4.29-11.21-6.74z"/><path fill="#fff" d="M223.32 104.67c5.18 3.88 10.37 7.75 15.61 11.54.15 8.34-.1 16.67 0 25.01-2.56 0-5.13-.1-7.69 0-.38-2.39-.69-4.79-.93-7.2-8.07-1.24-18.7-1.15-23.01 7.17-6.32.54-13.7-1.83-19.01 2.71-4.77 3.63-6.08 10.04-5.89 15.72-3.12-2.64-4.95-6.34-6.16-10.17 7.37-4.36 14.52-9.12 22.01-13.25 2.92 1.07 6.6 2.1 9.23-.19 2.44-1.69 2.98-4.76 3.04-7.51 6.56-3.92 13.26-7.65 19.5-12.05-2.15-1.51-4.4-2.86-6.7-4.13.1-2.55.1-5.09 0-7.64z"/><path fill="#fff" d="M285.53 108.1c.53-.25 1.58-.75 2.1-1 4.09 2.37 7.79 5.33 11.62 8.09h-11.51c-.22-2.5-.99-4.88-2.21-7.07z"/><path fill="#fff" d="M319.23 178.58c23.18-23.3 46.23-46.72 69.37-70.06.38 3.59 1.07 7.14 2.11 10.61-22.75 23.24-45.67 46.32-68.45 69.53-.96-3.38-2.03-6.72-3.03-10.08z"/><path fill="#fff" d="M273.73 115.15c3.35-2.03 6.75-3.99 10.17-5.88.86 1.9 1.51 3.88 1.92 5.93-4.03-.1-8.06 0-12.09-.1z"/><path fill="#fff" d="M154.3 113.14c3.76-.64 7.53-1.3 11.24-2.22 1.46 1.45 2.95 2.88 4.46 4.29-4.77-.1-9.55-.1-14.32 0v2.06c5.46 0 10.93.1 16.39 0 3.02 2.82 6.04 5.64 9.03 8.5-2.88 3.39-6.2 6.82-7.2 11.31-.57 3.69-.17 7.44 0 11.15-1.4 1.27-3.12 2.1-4.68 3.15-8.86-10.71-14.12-24.36-14.86-38.23z"/><path fill="#fff" d="M246.91 110.97h2.22c1.45 1.53 2.91 3.06 4.38 4.58-3.68 0-7.36 0-11.03-.1 1.48-1.47 2.96-2.95 4.43-4.45z"/><path fill="#fff" d="M125.51 123.36c1.62-4.84 5.08-8.47 8.68-11.91 3.44 10.33 6.98 20.63 10.32 30.98-6.53-6.15-12.63-12.75-19-19.07z"/><path fill="#fff" d="M136.44 111.91c3.34.67 6.7 1.35 10.13 1.25 2.1-.17 4.28.62 5.74 2.15 1.22 13.47 6.32 26.69 15.08 37.07-2.75 1.67-5.49 3.34-8.19 5.08-3.75-3.92-7.81-7.57-11.35-11.68-3.94-11.23-7.31-22.68-11.41-33.87z"/><path fill="#fff" d="M175.24 117.26c4.96.1 9.93 0 14.89.15-2.55 2.26-5.1 4.51-7.47 6.96-2.5-2.35-5.08-4.61-7.42-7.11z"/><path fill="#fff" d="M192.32 117.27c9.8.57 19.72-.45 29.45.71-.23.27-.71.81-.95 1.08-9.56.25-19.14 0-28.71.11 0-.47.16-1.42.21-1.9z"/><path fill="#fff" d="M273.39 117.23c3.89 0 7.78 0 11.67.14-.96 1.77-2 3.49-3.07 5.21-2.91-1.71-5.85-3.38-8.6-5.35z"/><path fill="#fff" d="M287.46 117.19c4.83.2 9.67.13 14.5.13 5.93 4.82 11.92 9.82 16.11 16.29 2.46 3.64 2.08 8.26 1.92 12.43-6.9-4.17-13.71-8.5-20.6-12.68.58-2.95-.66-6.58-3.81-7.43-2.16-1.02-4.21.54-6.19 1.16-1.97-.99-3.8-2.24-5.68-3.39 1.38-2.1 2.62-4.27 3.75-6.51z"/><path fill="#fff" d="M305.88 117.34c10.45.13 20.9 0 31.35.23-5.56 5.19-12.07 9.31-19.06 12.31-3.6-4.67-8.35-8.22-12.29-12.54z"/><path fill="#fff" d="M241 141.25c.1-7.91 0-15.81 0-23.71 4.62 0 9.24.14 13.86.13v23.64c-4.62-.1-9.24-.1-13.85-.1z"/><path fill="#fff" d="M449.49 117.28c11.98 9.07 23.9 18.22 35.84 27.33.1 4.75.1 9.49-.1 14.23-9.35.79-18.97-.17-27.73-3.67-5.41-2.08-10.14-5.54-14.67-9.1 4.6-8.81 7.17-18.82 6.63-28.79z"/><path fill="#fff" d="M62.7 122.41c11.49-2.37 23.55.36 33.62 6.14.4.66.8 1.31 1.21 1.97 1.39.37 2.88.61 4.05 1.51 11.51 8.24 19.98 20.51 23.87 34.1-5.93 4-10.96 9.17-15.18 14.94-15.81-19.6-31.68-39.14-47.57-58.66z"/><path fill="#fff" d="M92.05 121.2c.29.23.87.68 1.16.91.37 1.1.74 2.2 1.11 3.29-.86-.5-1.72-1-2.57-1.5.1-.68.22-2.03.3-2.7z"/><path fill="#fff" d="M177.34 133.97c3.11-5.17 7.72-9.19 12.15-13.2 9.68.84 19.44.19 29.15.35-2.96 1.85-5.86 3.79-8.92 5.46-2.48-2.46-6.1-4.74-9.6-2.83-4.29 1.68-5.34 6.99-3.33 10.8-7.13 4.03-13.92 8.63-21.07 12.63-.1-4.41-.84-9.26 1.62-13.21z"/><path fill="#fff" d="M372.94 140.22c6.32-6.43 12.59-12.91 19-19.26-.35 3.23-2.49 5.8-3.76 8.7-3.62 6.96-7.02 14.05-10.83 20.91.24-2.04.64-4.06 1.07-6.06-1.76-1.51-3.61-2.92-5.48-4.29z"/><path fill="#fff" d="M113.42 126.81c2.87-1.28 5.65-2.77 8.3-4.45 18.71 19.18 37.66 38.11 56.3 57.36-1 3.35-2.06 6.67-3.06 10.03-20.48-21.02-41.06-41.93-61.54-62.94z"/><path fill="#fff" d="M61.02 123.71c16.06 19.59 32.06 39.24 47.86 59.03-2.96 4.78-5.59 9.77-7.69 14.99-13.72-3.04-26.35-11.52-33.48-23.76-8.92-14.91-11.55-33.54-6.69-50.26z"/><path fill="#fff" d="M200.33 125.95c2.56-1.97 5.55-.11 7.59 1.65-3.06 2.13-6.29 3.98-9.48 5.89-.97-2.65-.87-6.01 1.89-7.54z"/><path fill="#fff" d="M282.19 125.17c2.02 1.28 4.04 2.55 6.09 3.79-.98 3.94 1.57 7.38 5.38 8.22 1.56-.65 3.11-1.33 4.63-2.07 7.17 4.44 14.32 8.91 21.52 13.3-1.04 3.33-2.03 6.85-4.5 9.45-6.31 6.39-12.42 12.99-18.72 19.39-9.42-5.45-18.63-11.3-28.19-16.52-.16 15.31-.1 30.61-.11 45.91-3.86 0-7.72 0-11.57-.1.14-21.18.1-42.38.41-63.55 8.84-5.18 18.03-10.22 25.06-17.85z"/><path fill="#fff" d="M392.86 125.06c3.87 8.27 9.85 15.38 16.91 21.12-2.99 0-6.08-.24-8.93.84-4.23 2.34-8.9 3.77-13.02 6.33-5.85 3.19-10.91 7.56-15.75 12.09 6.93-13.46 13.99-26.85 20.79-40.38z"/><path fill="#fff" d="M291.11 128.1c1.64-.14 3.52-.76 4.99.35.79 1.14 1.28 2.44 1.85 3.7-2.44-1.08-4.7-2.48-6.84-4.05z"/><path fill="#fff" d="M356.77 127.54c-.58 1.64-1.2 3.27-1.77 4.92-2.14-.55-4.27-1.1-6.39-1.7 2.77-.94 5.46-2.09 8.16-3.22z"/><path fill="#fff" d="M102.74 130.28c2.94-.77 5.86-1.66 8.75-2.62 2.62 2.8 5.32 5.53 8.03 8.24-.71 3.28-1.13 6.61-1.32 9.96-4.39-5.91-9.52-11.21-15.46-15.58z"/><path fill="#fff" d="M200.06 135.14c2.78-1.95 5.68-3.74 8.76-5.19-.85 1.93-1.92 3.74-3.34 5.3-1.81 0-3.62 0-5.42-.11z"/><path fill="#fff" d="M289.87 130.29c2.3 1 4.42 2.36 6.47 3.8-3.01 1.99-6.27-.54-6.47-3.8z"/><path fill="#fff" d="M320.98 134.17c12.4-3.47 25.74-2.54 37.89 1.5-7.1 7.12-14.21 14.22-21.25 21.4-5.21-3.32-10.44-6.59-15.69-9.83.7-4.37.44-8.86-.95-13.07z"/><path d="M276.01 136.48c5.42-2.28 12.35.53 14.14 6.24 2.52 6.33-2.78 14.1-9.62 13.97-5.82.46-11.24-4.75-10.95-10.58-.11-4.16 2.63-8.06 6.43-9.63z"/><path fill="#fff" d="M211.42 145.1c.19-5.89 7.62-9.54 12.51-6.4 4.48 2.46 5.51 9.22 1.98 12.9-1.37 1.75-3.58 2.38-5.58 3.08 0-3.26 0-6.51.16-9.77h-3.17c.1 3.16.1 6.34 0 9.5-3.59-1.62-6.51-5.16-5.85-9.31z"/><path fill="#fff" d="M121.22 137.72c8.69 8.88 17.32 17.84 26.06 26.68 2.18 2.45 4.88 4.47 6.73 7.2 4.38 12.65 8.61 25.37 12.85 38.08-3.45-1.11-6.81-2.47-10.15-3.88-1.76-15.14-9.29-30.21-22.21-38.77-2.29-1.31-4.63-3.75-7.41-2.25-1.4-5.64-4.17-10.77-6.86-15.88-.48-3.7.49-7.5.99-11.18z"/><path fill="#fff" d="M272.09 143.58c1.48-5.4 8.74-7.56 13.09-4.22 3.97 2.75 4.55 9.16 1.12 12.55-1.32 1.65-3.44 2.17-5.3 2.94-.1-3.26 0-6.53 0-9.8h-3.22c.1 3.21.1 6.42 0 9.63-4.02-1.93-7.6-6.5-5.7-11.1z"/><path fill="#fff" d="M5.86 139.94c6.44 8.84 14.97 15.93 24.45 21.32-8.16-1.11-16.58-.7-24.43 1.91.05-7.74.2-15.49-.02-23.23z"/><path fill="#fff" d="M371.37 141.72c1.29.91 2.58 1.84 3.83 2.81-3.19.97-6.31 2.15-9.5 3.07 1.83-2.02 3.8-3.9 5.67-5.88z"/><path fill="#fff" d="M189.65 145.4c4.78-3.85 11.28-1.67 16.88-2.26-.11 4.09.88 8.09 1.13 12.16-2.8 0-5.61-.25-8.41 0-.25.48-.74 1.43-.99 1.9 7.34 0 14.71.32 22.03-.27 6.66-.91 10.94-7.36 11.1-13.75 7.8 0 15.6.1 23.41 0 0 21.15-.38 42.29-.21 63.44-8-.1-16 0-23.99-.22 3.91-2.28 7.92-4.38 11.87-6.59-.44-12.89-.87-25.79-1.59-38.66-18.8 0-37.59-.1-56.39.1-.25-5.58.44-12.1 5.16-15.81z"/><path fill="#fff" d="M363.78 150.43c4.04-1.37 8.11-2.65 12.15-4.05-2.31 14.52-12.29 26.88-24.68 34.33-4.65-1.97-9.6-3-14.57-3.77 7.23-7.3 14.39-14.68 21.67-21.94 1.73-1.59 3.09-3.81 5.43-4.57z"/><path fill="#fff" d="M408.27 148.06c1.43 0 2.87.1 4.31.12 6.38 4.27 13.25 7.99 20.63 10.21.68-.41 2.04-1.23 2.72-1.65 6.07 3.5 10.76 8.85 15.4 13.99-7.6 4.83-13.98 11.45-18.49 19.25-4.45-6.5-9.54-12.55-13.86-19.12-1.8-8.29-5.18-16.29-10.71-22.8z"/><path fill="#fff" d="M441.85 147.85c10.32 9.22 24.22 13.55 37.93 13.3-9.3 1.34-18.48 3.92-26.7 8.55-4.63-5.66-9.87-10.87-16.03-14.85 1.69-2.27 3.27-4.62 4.8-7z"/><path fill="#fff" d="M51.67 168.03c1.89-6.32 3.4-12.76 5.41-19.05.87 7.72 3.11 15.27 6.64 22.19-1.13.72-2.27 1.46-3.4 2.21-2.81-1.91-5.69-3.7-8.65-5.35z"/><path fill="#fff" d="M378.1 162.76c7.7-6.54 16.79-11.73 26.7-13.97-12.06 30.26-23.37 60.82-35.56 91.04-7.11-11.86-12.13-25.57-11-39.59.89-14.63 8.82-28.13 19.86-37.48z"/><path fill="#fff" d="M315.77 160.4c3.2-2.83 4.61-6.92 5.99-10.81 4.42 2.81 8.84 5.61 13.35 8.26-6.86 2.36-13.71 4.76-20.66 6.87-.43-1.71-.2-3.29 1.32-4.32z"/><path fill="#fff" d="M406.68 149.5c6.99 8.21 10.77 18.96 10.92 29.7.75 17.66-6.37 35.62-19.3 47.74-7.44 7.2-17 11.99-27.13 14.04 11.9-30.47 23.69-60.99 35.51-91.48z"/><path fill="#fff" d="M170.48 153c1.31-.85 2.62-1.7 3.94-2.53 1.08 4.47 3.89 8.09 7 11.34-4.07-2.37-7.57-5.55-10.94-8.81z"/><path fill="#fff" d="M160.6 158.97c2.69-1.68 5.44-3.27 8.08-5.02 3.98 4.45 8.87 7.91 13.91 11.04-.9 4.34-2.59 8.45-3.82 12.7-5.88-6.4-12.09-12.5-18.17-18.72z"/><path fill="#fff" d="M315.52 166.71c6.26-2 12.37-4.45 18.71-6.21-5.14 5.38-10.48 10.58-15.8 15.79-.93-3.21-1.91-6.4-2.91-9.58z"/><path fill="#fff" d="M5.87 165.38c11.76-4.13 24.9-3.3 36.52.93 16.97 5.94 31.77 19.33 37.48 36.61 1.52 4.2 2.1 8.65 2.86 13.03-25.66-13.18-51.29-26.42-76.9-39.69.06-3.63.07-7.25.04-10.88z"/><path fill="#fff" d="M186.34 163.22c12.32-.11 24.65-.1 36.97 0-7.7 4.88-15.8 9.12-23.54 13.95-4.29-4.82-9.04-9.21-13.43-13.94z"/><path fill="#fff" d="M228.29 163.14c3.58 0 7.16 0 10.74.1.3 11.81.97 23.6 1.35 35.41-4.03 2.37-8.25 4.42-12.24 6.86.19-14.11.1-28.22.15-42.33z"/><path fill="#fff" d="M439.36 184.1c10.98-13.71 28.73-20.6 45.96-21.06-.1 5.1-.1 10.2 0 15.3-19.14 17.17-38.31 34.31-57.51 51.4-1.28-15.84 1.51-32.89 11.58-45.64z"/><path fill="#fff" d="M201.28 178.57c7.67-4.29 15.13-8.97 22.86-13.17-4.34 7.72-8.69 15.43-13.02 23.14-3.2-3.4-6.56-6.65-9.84-9.97z"/><path fill="#fff" d="M272.24 165.42c7.78 4.25 15.31 8.96 22.93 13.49-3.26 3.28-6.53 6.57-9.6 10.03-4.44-7.85-8.79-15.74-13.33-23.52z"/><path fill="#fff" d="M298.55 178.44c4.48-4.66 8.84-9.43 13.38-14.04 0 7.36.1 14.72.14 22.09-4.48-2.73-9-5.38-13.52-8.05z"/><path fill="#fff" d="M185.49 166.02c4.3 3.82 7.97 8.27 12 12.36-4.14 2.52-8.34 4.93-12.55 7.33.6-6.55.65-13.12.55-19.69z"/><path fill="#fff" d="M129.52 190.16c0-7.82.56-15.63.8-23.44 12.57 7.16 20.81 20.39 23.51 34.42 5.11 23.76-4.42 51.59-26.35 63.69 0-11.91.84-23.79 1.05-35.69-.19-13.01 1.18-25.98.99-38.98z"/><path fill="#fff" d="M212.68 190.17c4.43-7.92 8.8-15.89 13.35-23.74 0 12.48.1 24.97-.12 37.46-4.36-4.62-8.76-9.2-13.23-13.72z"/><path fill="#fff" d="M270.43 166.67c4.74 7.82 8.99 15.93 13.59 23.84-4.59 4.7-8.96 9.6-13.64 14.21.18-12.68.14-25.37 0-38.05z"/><path fill="#fff" d="M100.18 224.98c-3.13-22.69 9.26-45.77 27.97-58.25-.69 16.12-.61 32.25-1.4 48.36-.14 16.51-1.27 33.01-1.13 49.53-12.55-9.82-23.21-23.46-25.44-39.64z"/><path fill="#fff" d="M314.11 187.66c.31-6.02-.68-12.12.27-18.09 2.08 7.43 4.44 14.77 6.68 22.16-2.34-1.33-4.63-2.72-6.95-4.07z"/><path fill="#fff" d="M367.07 170.21c-1.27 3.13-3.2 5.93-4.81 8.89-.53-.83-1.05-1.67-1.58-2.49 2.06-2.2 4.19-4.34 6.39-6.4z"/><path fill="#fff" d="M183.25 170.39c.7 5.5-.45 11.01-.45 16.52-1.87 1.21-3.76 2.39-5.67 3.52 1.94-6.71 4.23-13.31 6.12-20.04z"/><path fill="#fff" d="M62.1 174.67c.64-.45 1.92-1.36 2.56-1.81 3.02 5.79 7.51 10.59 12.09 15.16 0 .58-.01 1.75-.01 2.34-4.63-5.45-9-11.2-14.64-15.69z"/><path fill="#fff" d="M157.36 174.72c5.7 5.69 11.28 11.51 16.87 17.31-1.54.94-3.07 1.9-4.5 3 1.15.31 2.3.6 3.47.85-1.64 4.41-2.7 9-4.4 13.38-3.63-11.57-7.6-23.04-11.44-34.54z"/><path fill="#fff" d="M419.47 175.39c4.23 5.49 8.27 11.14 12.43 16.69-4.29 8.94-6.36 18.86-6.48 28.75-4.69-2.62-8.96-5.93-12.72-9.76 5.44-11.01 8.03-23.42 6.77-35.68z"/><path fill="#fff" d="M353.51 181.81c1.88-1.32 3.73-2.68 5.58-4.04.61 1.27 1.23 2.55 1.85 3.82-.5 1.18-.99 2.37-1.48 3.55-1.98-1.12-3.96-2.24-5.95-3.33z"/><path fill="#fff" d="M5.79 178.65c25.23 12.88 50.4 25.91 75.53 38.99-6.64 3.13-13.62 5.56-20.83 6.94-.7-1.38-1.26-3.03-2.88-3.56-11.8-5.98-25.5-7.3-38.51-5.79-4.92-3.95-9.54-8.38-13.09-13.63-.42-7.63.04-15.31-.22-22.95z"/><path fill="#fff" d="M335.59 178.94c8.26.74 16.24 3.62 23.12 8.24-6.52 19.05-.48 39.93 10.33 56.17 5.49-.85 10.82-2.48 15.93-4.66-.29 10.6-3.4 20.98-9.11 29.92-7.4-15.44-14.02-31.24-21.05-46.85-6.5-14.23-12.92-28.5-19.22-42.82z"/><path fill="#fff" d="M185.02 188.41c4.33-3.29 9.41-5.48 13.95-8.47 3.54 3.82 7.3 7.42 10.74 11.34-6.81 11.37-13.17 23-19.71 34.51-1.74 2.03-4.52 2.79-6.66 4.32.25-7.35.19-14.7.86-22.03.65-6.54-.1-13.16.82-19.67z"/><path fill="#fff" d="M297.08 179.95c4.85 3.24 10.46 5.65 14.94 9.25.35 14.32.18 28.67.36 43-2.24-1.26-4.45-2.57-6.69-3.83.52-1.15 1.05-2.35 0-3.4-6.46-11.23-12.69-22.59-18.99-33.91 3.39-3.76 6.91-7.4 10.35-11.11z"/><path fill="#fff" d="M333.77 179.83c7.3 16.91 14.97 33.65 22.55 50.44 5.8 13.03 11.41 26.14 17.49 39.04-11.71-3.02-23.5-7.5-32.34-16.05-.64-1.1-.85-2.37-1.22-3.56-4.37-16.56-9.35-32.94-14.22-49.35 1.38-7.22 3.93-14.23 7.74-20.52z"/><path fill="#fff" d="M483.96 182.2c.35-.18 1.05-.55 1.4-.73-.32 11.55.1 23.11-.31 34.65-14.13 14.61-36.38 21.22-56.08 15.48 18.2-16.62 36.83-32.76 54.99-49.4z"/><path fill="#fff" d="M324.28 189.68c1.27-1.38 2.55-2.76 3.85-4.12-.32 1.24-.65 2.49-.97 3.73l-2.88.39z"/><path fill="#fff" d="M78.72 189.63c5.98 4.33 12.69 7.55 19.77 9.59-4.26 22.51-21.52 42.46-43.84 48.47 3.22-6.57 5.22-13.7 5.43-21.03 8.12-1.33 15.95-4.13 23.32-7.76 1.77-.43.98-2.44 1.16-3.74-.61-8.14-3.36-16.03-7.3-23.15.37-.59 1.1-1.78 1.46-2.38z"/><path fill="#fff" d="M175.99 193.58c2.16-1.42 4.41-2.71 6.64-4.03 0 8.19-.42 16.36-1.03 24.53-.1 5.54-.1 11.09-.38 16.63l-1.24-.68c-3.78-4.02-7.67-7.94-11.56-11.85 2.55-8.19 5.21-16.35 7.57-24.6z"/><path fill="#fff" d="M314.14 190.06c2.57 1.65 5.31 3.04 7.78 4.83 2.77 8.01 5.06 16.22 7.53 24.35.57 1.4-.32 2.71-.84 3.96-8.11 16.8-9.75 36.9-3.58 54.58 4.91 14.31 15.85 25.95 29.07 33.04 3.52 14.86 2.48 30.75-3.01 45-7.47 19.36-21.59 35.58-38.31 47.6-10.59 7.62-22.28 13.68-34.56 18.09 8.59-10.49 12.75-23.97 14.37-37.26 1.35-12.2.32-24.99-5-36.19-3.64-7.82-9.61-14.2-15.63-20.24-10.85-10.52-25.16-18.23-40.49-18.76-5.12 0-10.39-.4-15.36 1.11 1.8 5.36 1.93 11.54-.91 16.57-3.11 6.14-9.8 10-16.59 10.22-6.65.23-12.96-3.37-16.72-8.76-.25 0-.73-.1-.98-.1-5.72 6.24-9.55 13.96-12.6 21.8-3.84 10.3-6.27 21.11-7.46 32.03-11.51-14.05-19.13-31.58-19.81-49.86-.9-13.72 3.3-26.97 6.53-40.12 1.69-6.5 3.3-13.02 5.21-19.47 8.53.37 17.12-5.1 19.72-13.35 3.16-8.84-.7-19.65-9.16-24.01 1.53-4.87 2.99-9.77 4.39-14.68 14.94 14.89 29.63 30.07 44.65 44.89 6.32 3.71 14.04 5.4 21.35 4.58 14.98-1.82 25.66-19.2 20.57-33.38-1.12-3.28-2.79-6.4-5.09-8.99-6.02-6.3-12.19-12.45-18.29-18.67 12.46.1 24.9-.52 37.35-.31 0 4.72-.1 9.44 0 14.16-3.9.83-7.87 2.68-9.74 6.42-3.69 6.23-.25 15.19 6.75 17.22 7.57 2.87 16.54-4.09 15.65-12.14-.11-5.88-5.11-10.32-10.59-11.43.11-4.24.12-8.48 0-12.71 14.5 8.4 28.94 16.93 43.47 25.29.82-1.25.58-2.77.62-4.17-.18-13.73-.12-27.45-.31-41.18z"/><path fill="#fff" d="M323.05 191.91c.73-.12 2.18-.36 2.91-.49l-.78 3.37c-.73-.95-1.44-1.91-2.13-2.88z"/><path fill="#fff" d="M211.15 192.73c4.66 4.74 9 9.78 13.76 14.42-10.61 5.76-21.14 11.65-31.74 17.41 5.81-10.71 12.1-21.15 17.98-31.83z"/><path fill="#fff" d="M285.17 192.65c6.53 11.69 12.97 23.43 19.6 35.07-11.44-6.52-22.76-13.25-34.16-19.85 4.87-5.06 9.79-10.07 14.56-15.22z"/><path fill="#fff" d="M5.74 205.12c3.43 3.69 6.75 7.5 10.73 10.63-3.66.58-7.21 1.68-10.75 2.75.15-4.46.09-8.92.02-13.38z"/><path fill="#fff" d="M75.59 239.68c10.28-8.04 18.76-18.93 22.38-31.6.1 5.98-.85 12 .31 17.94 2.57 17.29 14.4 31.66 28.13 41.74 21.72-10.68 32.86-36.3 30.67-59.71 3.59 1.64 7.3 3.01 11.01 4.35-2.64 8.27-5 16.63-7.53 24.94-.46 1.89-2.2 3.02-3.4 4.44-15.22 15.69-22.55 40.04-14.39 60.92-.52 2.09-1.05 4.19-1.6 6.28-8.03-14.69-22.07-26.73-38.88-29.58 4.53-14.03 3.78-30.25-4.19-42.93-7.62-1.4-15.23 1.14-22.51 3.21z"/><path fill="#fff" d="M182.82 232.72c14.26-8.2 28.91-15.72 43.14-23.97 0 4.71 0 9.43-.1 14.14.55 0 1.64.1 2.19.12.11-4.69.1-9.38.1-14.07 5.76 6.12 11.79 11.99 17.62 18.04 4.81 4.34 7.45 10.76 7.82 17.16-.25 7.66-4.18 15.11-10.22 19.8-5.68 4.34-13.44 5.13-20.23 3.38-3.83-.97-8.08-1.84-10.87-4.88-9.8-9.92-19.64-19.8-29.44-29.72z"/><path fill="#fff" d="M386.82 237.79c10.44-5.69 19.3-14.35 24.84-24.91 4.01 4.19 8.77 7.56 13.86 10.32 0 3.24-.17 6.57.85 9.71 11.37 3.61 23.77 3.85 35.12.1 8.76-2.84 16.79-7.66 23.65-13.77-.1 3.05.45 6.35-1.19 9.11-6.96 14.41-7.91 31.9-1.23 46.58.81 2.07 2.36 3.96 2.25 6.29.1 8.5-.13 17-.1 25.51-7.21 7.27-14.41 14.55-21.64 21.81-7.27-13.42-20.25-24.35-35.61-26.72-10.18 10.55-15.5 25.03-16.66 39.48-.88 11.31 1.42 22.93 7.16 32.77-2.13 2.23-4.28 4.44-6.5 6.58-3.75-4.14-8.2-7.6-13.14-10.18-13.27 7.06-22.62 19.94-28.14 33.66-2.76 7.01-4.12 14.58-3.78 22.11-2.23 2.13-4.37 4.35-6.48 6.59-4.52-17.09-14.27-32.45-26.56-45.02 11.3-12.7 20.36-27.98 23.29-44.9 7.28 1.84 14.77 2.92 22.3 2.72 5.96-12.83 7.04-27.75 2.94-41.29-5.62-18.73-19.86-35.13-38.37-41.96-.48-1.81-1-3.6-1.48-5.4 9.74 7.75 21.57 12.32 33.66 14.85 4.34-5.59 7.2-12.13 9.34-18.84 4.59 15.25 14.73 28.89 28.28 37.33 10.85 6.77 24.25 9.49 36.85 7.11 9.98-1.57 19.44-5.63 28.06-10.8-1.27-12.34-6.68-24.12-15.22-33.12-12.83-13.69-31.83-21.58-50.61-20.4-9.24.29-18.23 3.67-25.79 8.93v-4.2z"/><path fill="#fff" d="M6.06 220.73c16.3-6.16 35.27-5.46 50.96 2.24-17.13 9.46-34.28 18.89-51.33 28.5.22-10.23-.35-20.57.37-30.74z"/><path fill="#fff" d="M329.87 225.06c.31-.23.93-.7 1.24-.94 3.11 13.69 7.04 27.19 10.66 40.75-4.55 5.64-7.34 12.88-6.69 20.19.12 3.74 1.72 7.16 3 10.61-10.17-11.11-15.14-26.54-14.56-41.49-.25-10.05 2.66-19.88 6.35-29.12z"/><path fill="#fff" d="M5.68 253.79c17.39-9.74 34.86-19.33 52.26-29.04.3 13.86-6.29 27.18-16.17 36.65-9.89 9.29-22.63 15.63-36.13 17.34.07-8.32.07-16.64.04-24.95z"/><path fill="#fff" d="M265.85 225.55c3.91-1.33 8.55 0 10.97 3.42 4.11 5.04 1.52 13.84-4.91 15.47-5.58 2.09-12.44-2.38-12.67-8.36-.7-4.56 2.28-9.11 6.61-10.53z"/><path fill="#fff" d="M484.82 274.59c-6.44-13.64-5.67-29.75 0-43.53.65 7.01.1 14.08.24 21.12-.11 7.47.24 14.95-.2 22.41z"/><path fill="#fff" d="M386.64 244.65c11.5-8.79 26.82-11.57 40.87-8.58 23.84 4.37 45.4 23.86 48.43 48.49-29.69-13.46-59.65-26.36-89.3-39.91z"/><path fill="#fff" d="M162.88 237.17c8.77 5 11.26 17.71 5.41 25.81-3.35 4.88-9.25 7.42-15.05 7.61 3.24-11.13 6.32-22.31 9.64-33.42z"/><path fill="#fff" d="M62.99 248.47c9.64-6.23 20.94-10.33 32.49-10.43-17.65 27.43-35.4 54.78-52.86 82.33-4.78-12.86-7.09-27.18-3.39-40.62 3.5-13 12.45-24.16 23.76-31.28z"/><path fill="#fff" d="M44.23 321.52c17.78-27.47 35.24-55.14 53.22-82.47 6.63 12.72 7.17 28.04 2.27 41.42-7.75 23.16-30.45 41.9-55.49 41.05z"/><path fill="#fff" d="M143.8 298.74c-6.66-19.53 1.36-41.42 15.08-55.94-5.2 18.59-10.63 37.14-15.08 55.94z"/><path fill="#fff" d="M385.89 246.76c29.71 13.1 59.37 26.31 89.01 39.57-13.59 7.4-29.64 12.36-45.09 8.51-22.45-5.43-39.51-25.83-43.92-48.08z"/><path fill="#fff" d="M53.17 250.23c1.93-.66 3.88-1.22 5.85-1.73-10.47 7.96-19.1 18.98-22.16 31.97-3.39 14.36-.93 29.6 4.85 43.02 16.02 1.25 31.81-5.4 43.35-16.31-1.3 7.97-.17 16.06 1.66 23.85-2.8-4-5.94-7.77-9.65-10.96-12.57 3.56-23.52 11.63-31.75 21.66-5.9-5.84-11.75-11.73-17.6-17.63.15-16.17-5.36-33.01-17.69-43.96 17.61-3.63 33.95-14.29 43.14-29.91z"/><path d="M287.85 250.47c5.04-.95 10.54-.42 14.91 2.46 6.86 3.94 10.59 12.44 9.11 20.17-.97 5.44-4.33 10.48-9.1 13.29-6.14 3.87-14.47 3.89-20.62 0-5.72-3.26-9.16-9.71-9.58-16.18-.2-9.06 6.34-17.82 15.28-19.78z"/><path fill="#fff" d="M288.7 252.37c4.02-.66 8.32-.38 11.92 1.68 7.93 3.87 11.69 14.25 8.12 22.33-3.13 7.97-12.52 12.7-20.79 10.34-6.56-1.63-11.79-7.39-12.9-14.04-1.86-8.98 4.71-18.52 13.65-20.31z"/><path d="M251.8 265.46c8.85-2.12 18.37 5.59 18 14.74.45 8.15-7.09 15.62-15.22 15.07-8.01.29-15.23-7.07-14.88-15.06-.1-7 5.25-13.41 12.1-14.75z"/><path fill="#fff" d="M344.4 264.73c17.6 7.19 30.99 23.2 36.04 41.4 3.41 12.03 2.56 25.11-2.34 36.61-7.25-10.61-14.79-21.05-21.71-31.86-3.89-15.4-7.66-30.85-11.99-46.15z"/><path fill="#fff" d="M252.6 267.33c8.72-1.76 17.28 7.28 14.84 15.91-1.48 8.37-12.22 12.8-19.3 8.28-6.27-3.4-8.27-12.28-4.37-18.16 1.9-3.19 5.26-5.21 8.83-6.03z"/><path fill="#fff" d="M337.66 288.25c-1.79-7.25.49-14.94 4.76-20.89 3.45 13.55 7.37 26.97 10.86 40.5-7.58-4.03-13.78-11.1-15.62-19.61z"/><path fill="#fff" d="M5.62 301.71c.37-7.26-.61-14.63.58-21.81 13.14 9.58 18.99 26.26 19.52 42.03-6.81-6.63-13.37-13.51-20.1-20.22z"/><path fill="#fff" d="M101.67 281.34c17.23 2.82 31.18 15.67 38.9 30.86-3.02 14.18-2.03 29.18 2.79 42.85.26 1.15 1.11 2.38.58 3.59-1.46 4.23-3.72 8.11-6 11.94-12.69-28.19-25.32-56.42-38.13-84.56.63-1.56 1.24-3.12 1.86-4.68z"/><path d="M163.73 286.35c8.85-1.74 18.33 4.05 20.81 12.72 2.93 8.48-2.02 18.55-10.22 21.93-3.33 1.55-7.14 1.62-10.72 1.17-8.43-1.39-15.15-9.42-14.88-17.98-.18-8.61 6.65-16.32 15.01-17.84z"/><path fill="#fff" d="M162.17 288.86c7.25-2.52 15.52 1.19 19.25 7.72 1.18 3.33 2.47 6.9 1.56 10.47-1.18 7.31-7.95 13.45-15.45 13.34-7.62.56-14.96-5.32-16.38-12.75-1.92-7.87 3.28-16.54 11.02-18.78z"/><path fill="#fff" d="M87.61 304.51c4.45-4.79 8.25-10.2 11-16.14 12.49 27.58 24.91 55.2 37.34 82.81-12.21-3.03-24.32-7.98-33.45-16.89-13.11-12.62-17.93-32.15-14.89-49.78z"/><path fill="#fff" d="M429.63 304c12.12 3.18 22.74 11.03 29.5 21.56 8.21 12.74 11.97 28.39 9.95 43.44-1.52 11.06-6.38 21.58-13.76 29.96-8.67-31.62-17.35-63.25-25.69-94.96z"/><path fill="#fff" d="M5.62 304.75c12.85 12.82 25.54 25.78 38.34 38.65-1.74 2.46-3.4 4.98-5 7.54-11.09-11.31-21.98-22.83-33.33-33.89.05-4.1-.01-8.2-.01-12.3z"/><path fill="#fff" d="M414 334.07c2.02-10.67 6.45-21.08 13.72-29.25 8.25 31.55 16.93 62.99 25.45 94.46-13.02-5.36-25.45-13.61-32.87-25.87-7.24-11.61-8.82-26.06-6.3-39.34z"/><path fill="#fff" d="M464.48 330.27c6.74-6.96 13.76-13.66 20.36-20.76 0 4.12-.1 8.24 0 12.36-5.6 5.69-11.14 11.44-16.76 17.1-1.12-2.94-2.53-5.75-3.59-8.7z"/><path fill="#fff" d="M218.8 311.32c7.52-.28 15.21-.85 22.57 1.16 16.22 3.94 29.56 15.34 39.43 28.41 9.32 12.21 11.5 28.43 9.7 43.34-1.36 11.42-4.81 22.81-11.23 32.44-2.31 2.93-4.79 6.51-8.75 7.13-13.18 2.13-26.77 3.89-40.01 1.43 10.21-2.35 20.78-6.3 27.71-14.55 7.46-8.79 8.65-21.84 4.13-32.25-3.17-7.39-9.56-12.81-16.52-16.5-6.2-3.12-12.91-5.57-19.87-6.07-.33 22.88-.15 45.76-.26 68.65-24.88-5.94-45.76-22.11-63-40.39 2.11-18.78 6.77-38.06 18.42-53.35 3.27 3.55 7.31 6.65 12.15 7.6 9.58 2.48 20.46-2.83 24.4-11.92 2.25-4.72 2.06-10.11 1.13-15.13z"/><path fill="#fff" d="M357.29 316.01c6.13 9.26 12.54 18.34 18.75 27.56-6.35-.1-12.61-1.23-18.77-2.7 1.33-8.24 1.17-16.61 0-24.86z"/><path d="M304.12 322.87c7.71-5.51 18.26-6.57 27.02-3.04 8.13 3.17 14.45 10.44 16.67 18.86 3.42 12.27-2.47 26.2-13.69 32.27-2.15-4.57-6.12-9.17-11.65-8.84-5.93-.19-10.48 5.02-11.45 10.55-11.53-3.55-19.54-15.52-18.99-27.5.23-8.77 4.81-17.36 12.09-22.3z"/><path fill="#fff" d="M5.47 320.22c.43.26 1.28.79 1.7 1.05 5.47 5.75 11.08 11.36 16.65 17.01-2.88 11.65-9.17 22.58-18.45 30.3.38-16.12.36-32.25.1-48.36z"/><path fill="#fff" d="M294.28 343.25c1.01-11.64 10.81-21.81 22.43-23.18 8.34-1.29 17.23 1.77 22.92 8.02 4.45 4.87 7.21 11.45 6.95 18.1.27 8.68-4.58 17-11.61 21.9-2.45-4.5-7.03-8.26-12.39-7.98-6.06-.28-11.32 4.31-13.06 9.93-10.07-4.56-16.67-15.75-15.24-26.79z"/><path fill="#fff" d="M53.44 336.05c6.39-5.76 13.71-10.76 22-13.3-8.5 31.45-17.67 62.72-25.9 94.24-9.37-11.77-16.11-26.47-15.44-41.78.52-15.07 8.51-29.03 19.34-39.16z"/><path fill="#fff" d="M77.39 323.2c12.17 11.17 16.71 28.87 14.29 44.88-2.73 22.29-18.21 43.72-40.44 49.71 8.79-31.51 17.64-63.01 26.15-94.59z"/><path fill="#fff" d="M468.68 341.18c5.51-5.39 10.92-10.89 16.16-16.55-.1 33.76-.16 67.53-.15 101.29-14.56 7.11-27.14 19.17-33.01 34.46-5.34 13.37-4.47 28.73 1 41.92 2.42 6.42 6.01 12.3 9.74 18.03 7.93-1.42 15.33-4.75 22.16-8.94-.57 15.91-.1 31.85-.3 47.77-.2 122.2-.58 244.4-.54 366.59-27.55-.1-55.1-.11-82.65-.21 8.05-35.52 15.74-71.14 24.01-106.61 4.78-20.69 9.26-41.44 13.85-62.17 4.18-19.14 8.67-38.21 12.37-57.45 1.28-19.14-2.46-38.63-10.95-55.86-8.36-16.54-18.9-32.02-31.58-45.55-11.26-11.72-24.86-21.9-40.78-26.11 6.73-3.23 14.67-4.49 21.8-1.77 5.5 1.53 9.92 5.31 15.06 7.59-.28-1.45-.91-2.76-2.01-3.74-9.41-9.62-18.38-19.64-27.74-29.3-3.51-3.54-6.67-7.47-10.65-10.5-.49 23.69-.16 47.4-.33 71.09-.16 28.34-.11 56.67-.2 85.01 0 3.11.19 6.27-.38 9.36-.61-1.37-.97-2.8-1.06-4.27.1-58.72-.1-117.46.45-176.18 6.15-.5 12.34-1.05 18.29-2.78 4.3-19.89-3.56-40.98-18.14-54.76.1-4.32 0-8.63-.31-12.93 2.24-2.25 4.45-4.52 6.6-6.85 4.88 13.09 14.36 23.99 25.31 32.44 9.43-4.65 17.37-12.27 22.56-21.41 10.79-18.29 11.49-42.04 2.05-61.02 1.95-2.76 4.58-4.95 6.81-7.47 8.01 8.16 18.21 13.73 28.76 17.89 16.02-15.43 20.6-40.22 13.8-61.01z"/><path fill="#fff" d="M25.44 339.94c4.1 4.31 8.26 8.55 12.46 12.76-4.47 9.43-7.05 20.01-5.6 30.47 1.46 13.89 8.53 26.5 17.12 37.24 13.21-3.09 25.19-11.29 32.75-22.57 3.71 3.89 7.53 7.67 11.32 11.49-7.32 11.19-10.57 24.62-11.03 37.86 14.26 7.47 31.51 8 46.57 2.66-.87 79.09-.15 158.2-.54 237.29-.1 4 .79 8.34-1.46 11.93.1-55.13.65-110.27.37-165.4-1.87.8-3.25 2.32-4.64 3.75-12.14 12.88-24.74 25.32-36.63 38.43 3.29.79 5.58-2.44 8.43-3.5 8.73-5.17 20.06-6.03 29.04-.97-16.42 3.7-30.06 14.51-41.7 26.18-11.47 12.26-21.22 26.09-29.38 40.75-10.21 18.79-15.01 40.63-12.99 61.95 12.08 59.85 26.19 119.28 39.16 178.94 3.28 15.27 7.02 30.45 10.25 45.72-28.1-.16-56.2-.1-84.31-.16-.05-152.24.35-304.49.66-456.73 8.82 3.5 18.33 4.81 27.76 5.21 6.94-13.6 7.68-29.98 2.55-44.29-5.23-15.17-16.06-28.4-30.15-36.14v-21.55c9.91-7.84 16.93-19.1 19.99-31.32z"/><path fill="#fff" d="M92.83 345.38c9.56 16.01 27.57 25.02 45.46 28.11 3.01-4.02 5.33-8.47 7.22-13.11 3.11 8.14 7.9 15.54 13.31 22.32.94 1.14 1.73 2.38 2.3 3.76-9.21-1.51-18.6-2.71-27.91-1.21-11.51 1.59-22.64 6.37-31.32 14.15-4.25-4.5-8.68-8.83-12.96-13.31 5.46-12.77 6.79-27.14 3.9-40.71z"/><path fill="#fff" d="M227.97 357.86c9.78 2.16 19.61 5.85 26.81 13.07 8.39 8.39 10.45 22.13 5.45 32.8-5.97 12.19-19.8 17.65-32.44 19.82.14-21.9.16-43.8.18-65.69z"/><path fill="#fff" d="M399.52 373.16c12.19 7.38 20.19 20.33 22.95 34.14 3.23 16.04.39 33.42-8.68 47.16-4.37 7.12-10.92 12.55-17.89 17 .25-5.43.71-10.85.63-16.28-.21-9.7 1.2-19.35.99-29.05-.1-7.67.93-15.31 1.01-22.98-.19-10.01.99-19.98.99-29.99z"/><path fill="#fff" d="M375.34 398.08c5.29-9.83 12.47-18.99 22.17-24.78-1.03 15.27-.87 30.57-1.92 45.84.21 11.68-1.24 23.32-1.06 35.01-.11 5.58-.5 11.15-.78 16.73-11.33-9.54-21.32-21.87-24.2-36.74-2.73-12.22.18-25.07 5.79-36.06z"/><path fill="#fff" d="M419.27 375.82c1.74 2.42 3.56 4.78 5.47 7.06-2.24 2.19-4.47 4.41-6.58 6.74-1.58-2.57-3.31-5.03-5.1-7.45 2.09-2.1 4.2-4.17 6.21-6.35z"/><path d="M302.05 377.66c6.11-2.49 13.51 2.92 12.87 9.52.25 7.6-9.83 11.95-15.5 7.21-6.09-4.19-4.49-14.62 2.63-16.73z"/><path fill="#fff" d="M302.97 379.51c5.2-2.06 11.12 3.35 9.8 8.74-.83 5.55-8.45 8.04-12.46 4.19-4.42-3.62-2.88-11.37 2.66-12.93z"/><path fill="#fff" d="M103.32 400.87c14.64-13.04 35.86-16.87 54.68-12.64-4.23 4.59-8.4 9.26-11.85 14.48-1.09 1.5-1.97 3.27-3.62 4.25-6.7 4.38-13.42 8.72-20.1 13.13-6.4-6.38-12.66-12.9-19.11-19.22z"/><path fill="#fff" d="M161.66 386.54c3.67 3.28 6.81 7.12 10.56 10.32-1.57 2.12-1.06 4.81-1.15 7.28 0 21.69-.16 43.38-.11 65.07-3.13-3.2-6.21-6.44-9.47-9.51.1-24.38-.1-48.77.17-73.16z"/><path fill="#fff" d="M87.95 388.04c32.74 33.49 65.86 66.61 98.66 100.04 10 10.32 20.08 20.57 30.2 30.77.85.79 1.81 1.42 2.89 1.89.26-32.04.14-64.08.34-96.12.44.4 1.34 1.21 1.78 1.62.55 51.97.77 103.95 1.08 155.93.28 32.04.56 64.08.73 96.11.86 7.36 4.44 15.13 11.34 18.58 7.34 3.63 16.77 3.08 23.34-1.93 6.65-5.43 9.4-14.37 9.14-22.72.87-81.37 1.79-162.75 2.7-244.13-.24-1.58.49-2.51 2.17-2.78-.1 29.29-.16 58.57-.24 87.86 0 3.49-.27 7.01.41 10.47 7.92-7.22 15.25-15.09 22.84-22.65 15.42-15.59 30.9-31.12 46.27-46.74 8.39-8.41 16.91-16.69 25-25.38.5 3.64 1.09 7.29 2.11 10.83-32.32 32.49-64.25 65.37-96.65 97.78-.58 129.25-.41 258.5-.68 387.74-17.46-.1-34.92-.1-52.38 0 0-53 .22-106.01.25-159.01.11-77 .62-154 .47-231-4.24-5.11-9.28-9.53-13.89-14.32-40.66-41.72-81.55-83.22-122.43-124.73 1.79-2.55 3.26-5.29 4.55-8.11z"/><path fill="#fff" d="M150.48 400.34c2.64-3.82 5.83-7.24 9.03-10.6.16 22.53-.25 45.05-.13 67.57-3.11-3.04-6.43-5.94-9.17-9.32 0-15.88 0-31.78.27-47.65z"/><path fill="#fff" d="M321.4 399.31c3.46-2.73 6.53-5.91 9.8-8.86-.28 23.82-.1 47.67-.36 71.49-2.92 3.61-6.51 6.63-9.71 9.99.15-24.2.15-48.41.27-72.62z"/><path fill="#fff" d="M333.29 390.33c3 3.42 6.07 6.8 8.71 10.51-.1 16.75-.1 33.5-.17 50.25-2.98 2.89-5.86 5.88-8.73 8.89-.1-23.22 0-46.43.19-69.65z"/><path fill="#fff" d="M5.39 395.21c13.83 7.8 24.18 21.22 28.87 36.32 3.87 12.48 3.39 26.4-1.95 38.38-8.3-11.9-16.39-23.95-24.67-35.86-.86-1.48-2.35-2.82-2.22-4.67-.07-11.39.11-22.78-.03-34.17z"/><path fill="#fff" d="M173.1 397.57c3.13 2.89 6.43 5.59 9.98 7.95-.37 1.52-.56 3.07-.56 4.64v70.73c-3.09-3.37-6.76-6.28-9.48-9.94-.17-24.46.25-48.92 0-73.38z"/><path fill="#fff" d="M310.05 407.95c3.01-2.33 6.19-4.44 9.25-6.69-.29 24.16 0 48.32-.39 72.47-2.5 3.63-6.19 6.48-9.28 9.68.42-25.15-.1-50.33.42-75.46z"/><path fill="#fff" d="M140.22 416.84c2.33-4.66 4.88-9.24 7.92-13.48.13 14.22 0 28.45-.12 42.67-2.86-2.91-5.72-5.81-8.56-8.73.1-5.39.13-10.79.1-16.18 0-1.45-.12-2.99.66-4.28z"/><path fill="#fff" d="M344.01 403.7c3.26 4.44 5.99 9.27 8.38 14.22.37 7.5 0 15.02.16 22.53-2.95 2.73-5.65 5.73-8.63 8.42.12-15.06.22-30.11.1-45.17z"/><path fill="#fff" d="M184.63 406.7c2.81 1.98 5.58 4.03 8.47 5.9-.17 26.32-.13 52.63-.17 78.94-2.86-2.78-5.56-5.71-8.41-8.5 0-25.45 0-50.89.11-76.34z"/><path fill="#fff" d="M123.82 421.56c5.84-3.69 11.57-7.55 17.41-11.25-3.45 6.49-6.55 13.17-8.71 20.21-2.82-3.06-5.81-5.97-8.7-8.96z"/><path fill="#fff" d="M299.51 414.3c2.78-1.62 5.51-3.32 8.28-4.95-.16 25.45-.2 50.9-.21 76.34-2.8 2.71-5.54 5.5-8.25 8.31.22-26.57.23-53.14.18-79.7z"/><path fill="#fff" d="M84.47 444.62c1.3-11.8 3.99-23.7 10.46-33.83 5.34 5.58 10.92 10.94 16.18 16.61-8.9 5.71-17.67 11.61-26.64 17.22z"/><path fill="#fff" d="M195.03 413.76c3.46 2.13 7.04 4.08 10.73 5.8-.14 28.36-.28 56.72-.19 85.08-3.5-3.7-7.08-7.34-10.67-10.96.16-26.64.14-53.28.13-79.92z"/><path fill="#fff" d="M286.66 420.46c3.66-1.61 7.27-3.3 10.87-5.03-.33 26.91-.25 53.83-.38 80.75-3.6 3.63-7.21 7.26-10.76 10.94.12-28.89.1-57.77.27-86.66z"/><path fill="#fff" d="M207.95 420.64c3.32 1.33 6.66 2.63 10.03 3.85-.1 30.77-.2 61.54-.19 92.31-3.26-3.57-7.34-6.64-10.03-10.57-.15-28.52.16-57.06.19-85.59z"/><path fill="#fff" d="M274.48 424.88c3.41-1.08 6.75-2.35 10.09-3.61-.11 29.27 0 58.54-.1 87.8-3.5 3.34-6.89 6.78-10.28 10.24.16-31.48.35-62.95.28-94.43z"/><path fill="#fff" d="M137.39 423.25c.26 4.06.15 8.14.1 12.22-1.03-1.08-2.1-2.12-2.99-3.3.49-3.1 1.79-6.01 2.91-8.92z"/><path fill="#fff" d="M354.63 438.19c.13-4.87-.12-9.75.25-14.61 1.52 3.51 2.43 7.24 3.56 10.89-1.26 1.24-2.52 2.5-3.81 3.72z"/><path fill="#fff" d="M223.96 426c11.01 2.45 22.42 4.24 33.68 2.52-4.86 3.78-8.98 9.24-9.15 15.62-.87 11.01 8.06 21.97 19.23 22.69 0 6.66-.25 13.32-.37 19.99-11.15.1-22.31 0-33.46.34 4.58-2.89 9.33-6.24 11.32-11.53 3.67-7.8-.26-17.42-7.25-21.91-4.04-2.9-8.99-3.97-13.85-4.51-.1-7.74 0-15.47-.15-23.21z"/><path fill="#fff" d="M252.04 438.53c2.81-6.38 9.12-10.97 16.06-11.72-.37 12.63-.32 25.26-.69 37.88-11.88-.97-20.57-15.29-15.37-26.16z"/><path fill="#fff" d="M450.33 476.25c1.03-20.97 16.13-38.93 34.38-48.04-.35 8.69.37 17.45-.4 26.1-7.03 20.92-14.39 41.74-21.82 62.52-7.58-12.08-13.26-26.05-12.16-40.58z"/><path fill="#fff" d="M85.68 446.49c8.89-5.96 17.87-11.8 26.9-17.54 4.12 3.55 7.59 7.78 11.53 11.53 1.97 2.16 4.55 3.91 5.79 6.65-13.93 5.92-30.46 5.7-44.22-.64z"/><path fill="#fff" d="M5.29 434.52c8.5 12.14 17.1 24.24 25.08 36.73-8.5-.88-17-2.24-25.02-5.29.02-10.48.08-20.96-.06-31.44z"/><path fill="#fff" d="M131.38 447.85c2.08 2.02 4.1 4.1 6.17 6.14 0 26.49-.11 52.99 0 79.48 1.37-.3 2.03-1.06 1.98-2.27v-75.16c2.91 2.86 5.72 5.83 8.61 8.72 0 22.52-.29 45.06 0 67.57.41.37 1.23 1.1 1.64 1.47.64-22.29.28-44.63.38-66.93 3.05 3.15 6.1 6.3 9.2 9.4-.1 14.62-.15 29.25-.15 43.87.12 4.55-.28 9.12.33 13.65.45-.43 1.34-1.3 1.79-1.73.1-17.96.13-35.92.1-53.88 3.01 3.49 6.38 6.65 9.56 10-.1 14.32-.1 28.65-.1 42.98 0 1.21.57 2.07 1.82 2.59.47-14.47.11-28.97.23-43.46 3.33 3.12 6.34 6.56 9.63 9.72.1 11.19-.1 22.38.1 33.56.46-.22 1.37-.68 1.82-.91.23-10.27.1-20.55.1-30.82 2.69 2.98 5.53 5.83 8.37 8.69 0 7.31-.17 14.63 0 21.94.44.31 1.33.94 1.78 1.25.43-7.03.1-14.09.16-21.13 3.62 3.58 7.03 7.38 10.72 10.9 0 3.05-.19 6.12.1 9.18.48.22 1.43.67 1.91.9.1-2.67.1-5.33 0-7.99 3.35 3.51 7.08 6.7 10.08 10.5.25 16.99-.22 34.01.1 51-2.6-4.34-5.12-8.79-8.74-12.38-8.6-8.88-21.27-13.03-33.47-12.7-13.38-.52-27.03 5.06-35.77 15.31-3.86 4.2-6.64 9.22-9.2 14.29-.1-27.82.22-55.64.2-83.46.35-20.09-.3-40.21.64-60.29z"/><path fill="#fff" d="M224.65 451.26c6.24.7 12.71 3.06 16.52 8.32 3.88 4.85 4.41 12.08 1.08 17.35-3.7 6.22-10.8 9.41-17.75 10.27.13-11.98-.15-23.97.15-35.94z"/><path fill="#fff" d="M354.73 457.18c1.54-2.61 4.15-4.46 6.25-6.63.27 47.12-.34 94.25-.1 141.37-4.27-8.87-10.27-17.15-18.66-22.53-14.18-8.87-32.82-9.53-47.93-2.62-9.24 4.07-16 12.14-20.46 21 .36-16.51.21-33.04.38-49.56 3.38-3.4 6.77-6.79 10.22-10.13v5.09h2c0-2.37 0-4.73-.1-7.09 3.6-3.58 7.14-7.22 10.69-10.85.12 6.2-.23 12.4.23 18.59.47-.3 1.41-.89 1.88-1.19.35-6.61-.13-13.25.16-19.86 2.84-2.59 5.48-5.39 8.21-8.09-.1 9.5 0 19 0 28.5.51 0 1.54.1 2.05.11.1-10.23-.1-20.47.1-30.7 3.05-3.17 6.21-6.23 9.25-9.41.1 12.67 0 25.34 0 38.01-.1 1.29.53 2.22 1.86 2.78.69-14.29-.16-28.66.5-42.94 2.98-3.57 6.58-6.59 9.66-10.09-.25 17.24-.29 34.49-.14 51.73.48.31 1.43.93 1.91 1.24.38-18.34.11-36.7.28-55.04 2.96-3.05 6.03-5.98 8.81-9.18 0 21.05-.19 42.11 0 63.15l1.88.96c.11-22.05.13-44.09.25-66.14 2.91-2.89 5.77-5.84 8.67-8.74-.11 24.81 0 49.62-.1 74.43.5 0 1.5 0 2-.1 0-25.36-.12-50.72.2-76.07z"/><path fill="#fff" d="M484.65 460.57c.1 16.08-.34 32.16-.31 48.24-6.01 4.25-12.82 7.32-19.99 8.97 7.09-18.95 13.2-38.27 20.3-57.21z"/><path d="M65.18 470.89c10.32-4.44 21.98-7.16 33.17-5.02 4.6 10 5.82 21.43 3.46 32.18-4.29 20.7-19.72 38.57-39.37 46.22-9.2 3.46-19.33 4.82-29.04 2.94-3.86-13.37-5.33-27.94-1.04-41.4 4.86-15.88 17.7-28.51 32.82-34.92z"/><path fill="#fff" d="M363.1 464.44c12.43 12.79 19.76 31.32 16.41 49.16-5.52-4.79-11.11-9.52-16.41-14.54-.19-11.54 0-23.08 0-34.62z"/><path fill="#fff" d="M37.68 498.41c10.78-20.71 34.96-32.39 57.84-31.22-20.06 25.79-40.44 51.34-60.75 76.94-4.15-14.93-4.48-31.72 2.91-45.72z"/><path fill="#fff" d="M36.11 545.76c20.5-25.66 40.74-51.52 61.2-77.21 4.15 10.27 4.74 21.86 1.65 32.5-4.63 16.85-16.79 31.42-32.43 39.17-9.31 4.77-20.03 6.54-30.42 5.54z"/><path fill="#fff" d="M224.5 489.06c14.31.1 28.62 0 42.93-.11-.3 14.1-.38 28.21-.49 42.31-14.12 0-28.24.18-42.36.21-.1-14.14 0-28.28-.1-42.41z"/><path d="M407.88 501.68c.92-1.61 1.46-4.22 3.76-4.2 8.07-.23 16.22 1.56 23.46 5.17 25.51 13.05 40.3 45.15 31.75 72.81-1.34 4.35-3.21 8.55-5.62 12.41-15.2-1.74-30.75-6.58-41.92-17.49-4.23-3.74-7.09-8.61-10.1-13.3 2.05 7.36 2.42 15.25.35 22.66-2.75-2.13-4.85-4.93-7.25-7.41-11.08-11.59-21.68-23.61-32.84-35.11-1.92-2.15-4.33-3.99-5.38-6.75 10.51-3.48 22.49-.71 30.96 6.25 4.41 3.09 7.47 7.55 10.73 11.74-4.78-15.2-4.34-32.14 2.1-46.78z"/><path fill="#fff" d="M412.33 499.48c10.68-.11 21.24 3.43 29.71 9.93 15.78 11.7 25.36 31.19 25.2 50.81-.38 8.49-2.37 16.98-6.54 24.44-8.65-16.1-18.19-31.69-27.01-47.69-6.98-12.58-14.55-24.82-21.36-37.49z"/><path fill="#fff" d="M410.51 500.6c16.11 28.3 32.24 56.59 48.48 84.82-15.82-1.8-31.82-8.19-42.14-20.73-14.16-17.82-15.57-43.71-6.34-64.09z"/><path fill="#fff" d="M362.99 501.78c4.85 4.56 9.93 8.86 14.96 13.23-4.92 1.16-9.97 1.45-14.96 2.08v-15.31z"/><path d="M103.15 531.84c7.66-3.79 16.86-4.88 24.94-1.74-9.51 10.64-19.71 20.67-29.39 31.17-5.12 5.71-10.54 11.16-15.78 16.76-.32.1-.96.21-1.28.28-1.92-5.35-1.36-11.27-.82-16.82 2.16-12.7 10.85-23.93 22.33-29.65z"/><path fill="#fff" d="M85.01 554.43c5.94-15.32 22.88-27.32 39.62-23.32-14.09 14.57-27.79 29.53-41.99 44-.35-6.97-.48-14.15 2.37-20.68z"/><path fill="#fff" d="M367.03 531.59c6.62-1.02 13.66-.69 19.73 2.4 11.32 5.39 19.95 16.53 21.63 29.04.69 4.21.52 8.49.1 12.72-13.99-14.54-27.56-29.5-41.43-44.16z"/><path fill="#fff" d="M226.27 533.58c13.21-.1 26.42-.18 39.63.1-.93 5.19-3.34 10.29-7.84 13.3-6.97 5-17.23 5.11-24-.32-4.32-3.03-6.56-8.05-7.79-13.03z"/><path fill="#fff" d="M224.51 536.34c2.32 6.27 6.56 12.12 12.97 14.63 10.9 5.04 25.24-.76 29.34-12.12 0 15.8-.51 31.58-.53 47.38-13.76 0-27.51.31-41.26.32-.1-16.74-.22-33.47-.52-50.21z"/><path fill="#fff" d="M94.18 570.07c10.45-10.71 20.63-21.7 31.24-32.25-.12 10.69-.18 21.38-.1 32.08-6.67-3.55-14.53-4.96-21.94-3.22-3.2.77-6.15 2.24-9.22 3.39z"/><path fill="#fff" d="M366.16 538.1c10.33 10.79 20.58 21.66 30.75 32.59-5.98-2.66-12.5-5.18-19.16-3.95-4.13.45-8.02 1.95-11.7 3.81.11-10.82.1-21.64.11-32.45z"/><path d="M137.36 544.07c16.37-.36 32.75 0 49.13 0 6.82.29 13.75-.6 20.49.65-1.28 1.94-3.55 1.33-5.43 1.46-21.02 0-42.03-.1-63.05-.22-.29-.46-.86-1.39-1.14-1.85z"/><path d="M286.04 544.16c22.44.1 44.88-.12 67.31.17l1.05 1.85c-22.77.1-45.54-.1-68.3 0 0-.5 0-1.5-.1-2z"/><path d="M136.98 567.22c10.43-9.34 24.65-14.41 38.62-14.06 12.02.72 24.02 5.03 33.14 13.02 1.64.1 0 3.07-.78 1.83-7.13-5.76-15.46-10.13-24.52-11.81-14.33-3.15-29.63 1.08-41.4 9.53-1.6.95-3.11 3.27-5.06 1.49z"/><path d="M287.37 562.99c11.67-7.79 26.4-11.36 40.24-8.55 8.63 1.64 16.85 5.29 23.89 10.53 1 .91 3.52 2.08 1.98 3.73-1.24-.56-2.35-1.33-3.43-2.11-11.13-8.38-25.62-12.69-39.49-10.46-7.47 1.07-14.68 3.88-21.01 7.97-2.5 1.5-4.51 4.01-7.54 4.42.84-2.61 3.3-4.01 5.36-5.53z"/><path fill="#fff" d="M153.51 568.96c11.86-6.03 26.16-6.45 38.71-2.37 12.12 3.93 21.62 14.33 25.18 26.48-8.96-.1-17.95-.3-26.9.26-4.75.76-9.75 1.19-13.96 3.73-4.86 2.94-8.47 7.48-11.84 11.96-9.26-4.39-18.36-9.11-27.76-13.18-2.64 3.18-4.89 7.06-4.6 11.35-.56 6.78 4.03 13.27 10.21 15.78 4.92 2.22 10.74 1.42 15.37-1.16-10.61 22.08-18.45 45.36-27.42 68.14.1-28.59 0-57.18 0-85.77.1-2.24-.21-4.52.25-6.71 3.84-11.77 11.58-22.71 22.74-28.51z"/><path fill="#fff" d="M296.47 568.03c12.56-5.12 27.25-5.18 39.68.37 11.25 5.25 19.56 15.66 23.75 27.2 1.43 3.34.76 7.02.87 10.55.1 28.05-.25 56.11-.1 84.16-8.72-22.55-16.75-45.42-26.77-67.45 3.33 1.3 6.96 2.35 10.56 1.64 7.77-1.07 14.37-8.4 14.04-16.33.31-4.51-1.81-8.74-4.77-11.98-8.99 4.34-18.04 8.55-26.97 13-3.04-3.96-6.09-8.03-10.24-10.89-5.18-3.79-11.85-4.13-17.98-5-8.09-.23-16.19-.15-24.28-.1 3.52-10.95 11.42-20.75 22.19-25.19z"/><path fill="#fff" d="M117.77 575.12c2.47-.77 4.98-1.43 7.46-2.17 0 44.03-.13 88.07-.31 132.1-2.3 7.19-4.75 14.38-7.47 21.44-.1-50.46.25-100.91.32-151.37z"/><path fill="#fff" d="M366.1 573.67c2.52.55 5.01 1.26 7.51 1.96-.22 50.5.1 101-.13 151.5-2.65-7.31-5.53-14.6-7.62-22.07-.1-43.79.25-87.59.24-131.39z"/><path fill="#fff" d="M108.18 579.52c2.47-1.25 4.96-2.43 7.44-3.63-.19 51.78 0 103.56-.14 155.34 0 2.45-1.21 4.67-1.94 6.96-2.01 5.49-3.71 11.1-5.95 16.5.1-58.39.36-116.78.59-175.17z"/><path fill="#fff" d="M375.73 576.64c2.59 1.11 5.12 2.35 7.63 3.64-.11 58.15-.28 116.3-.29 174.45-2.96-6.98-5.14-14.31-7.47-21.51-.28-52.19.19-104.39.13-156.58z"/><path fill="#fff" d="M96.27 587.35c3.15-2.36 6.42-4.55 9.72-6.69-.22 56.51-.45 113.02-.46 169.53-.1 3.78.2 7.58-.14 11.36-1.41 4.34-3.17 8.81-2.32 13.47.17 4.17 2.69 7.87 2.49 12.08 0 35.34 0 70.67-.14 106.01-3.24.1-6.48.1-9.72 0 .21-101.92.46-203.84.57-305.75z"/><path fill="#fff" d="M385.29 581.38c3.37 2.05 6.6 4.33 9.74 6.72-.52 101.85-.56 203.7-.46 305.55h-9.74c.15-36.13 0-72.26.23-108.39 1.86-6.09 3.96-12.76 1.47-19.03-1.34-3.19-1.71-6.61-1.46-10.04 0-58.28.28-116.56.22-174.83z"/><path d="M140.86 586.37c22.21-.53 44.45 0 66.67-.21v2h-63.08c-1.6.34-2.74-.55-3.59-1.8z"/><path d="M284.5 586.15c21.68.13 43.36.25 65.04.24.21.49.64 1.45.85 1.94-22.01.46-44.06-.12-66.09-.1.1-.53.15-1.59.2-2.11z"/><path fill="#fff" d="M225.11 588.7c13.6 0 27.2-.26 40.79-.52.1 1.82.1 3.65.14 5.49-13.63 0-27.27.24-40.9.25v-5.22z"/><path fill="#fff" d="M86.5 595.89c2.56-2.33 5.13-4.65 7.84-6.8-.41 106.69-.46 213.38-.84 320.07 0 5.17 0 10.35.1 15.53l-2.19.64c-1.94-8.34-4.22-16.63-5.57-25.07.2-101.45.77-202.91.66-304.37z"/><path fill="#fff" d="M397.14 589.77c2.47 2.46 5.82 4.45 7.5 7.48-.13 98.3-.15 196.6-.34 294.89-.1 4.36.38 8.8-.77 13.07-1.66 6.66-2.92 13.44-4.73 20.05-.57.15-1.7.43-2.27.58-.16-112.03.23-224.05.61-336.07z"/><path fill="#fff" d="M191.43 595.99c7.09-.45 14.19-.73 21.29-.73-2.11 4.15-6.35 7.52-11.21 7.07-4.36.25-8-2.76-10.08-6.34z"/><path fill="#fff" d="M214.88 595.09h2.59c0 4.11-.1 8.21 0 12.33-4.39 3.04-7.73 7.48-9.58 12.48-1.42-3.37-3.24-6.89-6.74-8.49-6.3-3.6-15.06.32-16.91 7.25-1.69 4.35.38 9.06 3.27 12.36-3.48-1.87-7.37.41-9.01 3.6v4.03c1.59 3.18 5.61 5.52 8.98 3.53 3.9-1.63 4.5-6.84 1.89-9.89 4.29 2.32 9.76 2.33 13.65-.81l1.24-1c-.97 5.71-1.95 12.35 1.46 17.46 3.24 2.75 7.81 2.98 11.77 4.11-.1 1.24-.1 2.48-.12 3.73-5.81 1.49-11.36 3.83-16.68 6.56-2.41-1.63-5.08-3.28-8.1-3.17-6.72-.52-13.25 5.22-13.52 11.98-.4 3.28 1.18 6.27 2.51 9.15-.92 2.69-2.26 5.23-3.02 7.99-2.4 8.17-1.69 16.78-1.7 25.19-4.1-2.38-10.05-1.88-12.68 2.41-3.55 4.81-.47 12.47 5.38 13.54 2.54 1.03 5.09-.33 7.34-1.43v5.16c-2.46.59-4.83 1.52-6.78 3.17.54-3.68-1.61-8.01-5.65-8.3-5.33-1.4-10.11 5.62-6.74 10.01 2.1 3.53 6.81 3.91 10.07 1.79-.52 2.72-.94 5.73.63 8.2 1.66 3.32 5.23 4.94 8.72 5.52v2.93c-4.81-2.35-11.32-1.86-14.73 2.64-4.27 4.89-2.99 13.19 2.52 16.61 3.65 2.6 8.58 2.2 12.4.19.23 9.91-.19 19.86.58 29.74-1.36 5.36-4.18 11.16-9.78 13.08-7.05 2.33-14.62-2.38-17.2-9-1.67-2.93-1.01-6.36-1.15-9.55-.19-12.22-.13-24.44-.39-36.65 3.08-.6 5.68-2.44 7.14-5.22v-4.68c-1.42-2.97-4.18-4.75-7.4-5.15-.13-12.12-.12-24.25-.57-36.36 3.34 2.92 8.13 4.71 12.38 2.64 5.52-2.31 7.65-10.03 3.86-14.73-3.69-5.46-12.78-5.3-16.36.19-2.08 2.68-1.77 6.16-1.21 9.29-1.1 9.96-.1 20.1-.18 30.13-3.75-3.93-10.25-3.51-13.5.81-.94 2.51-1.81 5.54-.26 7.99 1.61 3.48 5.69 5.24 9.39 4.62-1.43 4.15.74 8.34 4.64 10.07 0 14.33.55 28.65.5 42.99-6.36-.44-12.9.96-19.08-1.11-8.39-2.12-14.83-8.72-18.69-16.23-3.68-6.66-6.6-14.72-4.08-22.29 5.03-14.76 10.24-29.46 15.29-44.22 4.6.96 10.07-.57 12.12-5.14 3.07-5.23.22-12.23-5.2-14.55 7.64-21.08 15.84-41.94 23.79-62.9 1.77 2.22 3.49 4.95 6.48 5.6 5.66 2.01 12.5-3.06 11.83-9.16 0-6.28-7.58-10.82-13.14-7.84 4.79-10.05 9.31-20.91 18.34-27.95 3.83-3.2 8.87-4.11 13.69-4.66 2.31 7.05 10.67 10.58 17.47 7.95 3.96-1.32 6.75-4.7 8.23-8.49z"/><path fill="#fff" d="M225.15 595.95c13.7.11 27.39-.19 41.08-.29-.1 3 0 6.01-.2 9.02-13.57.28-27.15.22-40.73.35-.1-3.03-.1-6.06-.15-9.08z"/><path fill="#fff" d="M274.07 595.2c3.33 0 6.66 0 9.99-.16-4.04 3.39-5.69 9.65-2.49 14.15 3.27 5.62 12.15 6.22 16.18 1.13 4.03-4.4 2.62-11.39-1.4-15.29 2.19.27 4.38.57 6.56.88-1.99 2.31-3.73 5.81-1.69 8.64 1.54 3.4 6.29 4.64 9.33 2.48 3.06-1.64 3.52-5.51 2.74-8.56 11.23 7.39 16.61 20.23 21.81 32.06 3.54 8.25 6.77 16.63 10.06 24.98-6.12 1.64-10.02 8.48-7.97 14.56 1.86 6.59 10.08 9.85 16.1 6.78 10.87 29.69 21.15 59.61 31.15 89.61 2.82 8.19-.46 16.9-4.5 24.08-4.35 7.98-12.14 14.49-21.36 15.63-5.28.86-10.59-.41-15.89.1.78-26.96.88-53.95 1.29-80.91 1.77.8 3.5 2.21 5.56 1.82 2.2-.22 3.6-2.09 5.09-3.49.3-2.93-.1-6.32-3.05-7.73-2.34-1.66-5.11-.32-7.33.82-.2-2.18 1.34-5.57-1.85-6.05-.51 7.12-.24 14.27-.55 21.4-1.86-3.25-4.37-6.38-8.19-7.32-7.83-2.86-16.95 4.11-16.54 12.38-.32 8.18 8.78 14.84 16.46 12.09 3.69-.89 6.27-3.85 8.15-6.96-.18 20.62-.8 41.24-.94 61.87.44 8.4-7.49 16.62-16.09 15.26-6.61-.76-10.48-7.35-11.74-13.29.48-5.12.42-10.27.4-15.41 3.74-.29 7.83-1.52 9.67-5.11 2.69-3.85 1.64-8.96-1.03-12.51 4.29-.41 8.54-3.44 8.9-8 .99-5.98-5.55-11.46-11.25-9.44-2.51.53-4 2.72-5.68 4.43-.12-20.87.51-41.83.1-62.66 1.23 4.04 3.73 8.07 8.05 9.25 7.08 2.63 15.38-4.09 14.27-11.57-.3-7.05-8.55-12.12-14.99-9.22-4.36 1.44-6.89 5.79-6.96 10.24-.44-1.92-.9-3.82-1.32-5.73 1.62-2.3 2.69-5.35 1.23-8.01-1.42-3.79-6.6-3.05-8.2-6.76 3.5-.17 7.34-1.96 8.27-5.62.94-2.26 0-4.56-.75-6.7 3.86 2.64 9.05 3.75 13.28 1.28 5.21-2.6 8.08-9.26 5.75-14.73-1.55-4.59-6.03-7.93-10.91-7.93 3.36-2.24 6.03-5.64 6.44-9.76 1.09-8.4-8.34-15.7-16.2-12.36-7.27 2.47-10.05 12.44-5.35 18.41 2.06 3.04 5.67 4.33 9.14 4.93-3.15 1.71-5.15 4.73-6.17 8.1-.46-3.58-1.36-7.52-4.52-9.7-4.86-4.21-13.53-3.07-16.66 2.7-.68 1.95-1.76 3.8-2 5.88 0 5.23 3.77 10.49 9.08 11.39 2.22.58 4.48-.1 6.66-.52-1.86 1.85-3.02 4.2-3.46 6.79-7.32-5.69-15.93-9.51-24.8-12.03 0-1.2-.1-2.4-.11-3.58 4.41-1.16 9.41-1.54 12.84-4.9 1.79-5.8 1.97-11.92.42-17.81 5.46 2.29 11.61-4.2 8.87-9.49-1.89-5.15-9.39-5.41-12.47-1.25-2.16-4.6-5.57-8.37-9.42-11.6-.18-3.98 0-7.95 0-11.92z"/><path fill="#fff" d="M287.93 595.75c5.85-2.12 12 4.56 9.78 10.3-1.34 5.72-9.55 7.63-13.38 3.25-4.28-4.01-2.22-12.3 3.6-13.55z"/><path fill="#fff" d="M302.29 602.85c0-2.87 1.75-6.38 5.1-5.9 4.45 0 5.7 6.92 1.65 8.59-2.67 1.7-5.23-.66-6.75-2.69z"/><path fill="#fff" d="M73.69 610.16c3.47-4.22 7.02-8.4 10.86-12.29-.44 97.73-.41 195.46-.99 293.18-3.25-13.52-6.03-27.17-9.14-40.74-.58-2.71-1.36-5.42-1.28-8.21.17-55.65.14-111.31.29-166.96.29-21.66.23-43.32.26-64.98z"/><path fill="#fff" d="M134.47 608.18c-.49-3.69 1.13-7.08 3.12-10.05-1.06 3.82-2.73 7.9-.9 11.8 2.39 7.75 12.69 10.91 19.29 6.52 2.74-1.53 4.26-4.37 5.7-7.02.39.38 1.17 1.12 1.56 1.49-1.48 4.63-4.63 8.98-9.47 10.43-8.66 3.59-19.59-3.75-19.3-13.17z"/><path fill="#fff" d="M139.55 599.21c1.6.75 3.2 1.49 4.8 2.23-.47 1.54-1.41 3.05-1.15 4.73.27 3.91 5.39 6.45 8.64 4.23 1.49-.85 2.17-2.52 3.12-3.86 1.55.81 3.12 1.57 4.69 2.34-1.84 3.94-5.44 7.64-10.11 7.41-5.11.61-10.14-3.15-11.17-8.15-.96-3.02.15-6.1 1.18-8.93z"/><path fill="#fff" d="M353.34 598.48c4.1 5.37 4.47 13.36 0 18.61-4.74 6.36-14.89 7.35-20.79 2.05-1.71-2.63-3.33-5.42-4.44-8.37.31-.18.92-.54 1.22-.72 1.89 3.44 4.29 7.02 8.31 8.13 7.07 2.87 16.09-2.24 17.07-9.85.76-3.36-.39-6.67-1.34-9.85z"/><path fill="#fff" d="M346.47 601.96c1.58-.76 3.16-1.53 4.75-2.26 2.01 3.89 2.33 9.01-.43 12.62-2.68 3.81-7.99 5.66-12.38 3.94-3.44-.94-5.53-4.01-7.17-6.95 1.52-.8 3.04-1.6 4.55-2.41 1.23 2 2.61 4.34 5.18 4.74 2.86.7 5.2-1.65 6.71-3.77-.1-2.03-.28-4.07-1.21-5.91z"/><path fill="#fff" d="M406.37 856.16c0-85.77.23-171.54.54-257.3 3.67 3.99 7.24 8.08 10.57 12.37-.32 77.93-.34 155.86-.75 233.79-3.07 15.78-6.86 31.44-10.21 47.17-.49-11.99 0-24.03-.15-36.03z"/><path fill="#fff" d="M225.27 607.02c13.6-.1 27.21.19 40.8-.29-.14 15.18-.32 30.36-.46 45.55-13.37-.17-26.73.44-40.09.43.1-15.23-.1-30.46-.25-45.69z"/><path fill="#fff" d="M193.58 612.27c7.42-1.93 14.69 6.64 11.19 13.57-2.46 6.62-12.24 8.13-16.58 2.58-4.84-5.29-1.62-14.76 5.39-16.15z"/><path fill="#fff" d="M62.35 626.07c2.93-4.44 5.86-8.91 9.3-12.96-.52 69.67-.2 139.35-.49 209.03-.16 4.1.62 8.27-.38 12.32-2.75-14.15-6.33-28.14-9.2-42.25-.12-54.02-.09-108.04.11-162.06.12-1.38-.25-2.92.66-4.08z"/><path fill="#fff" d="M419.48 613.79c3.24 4.77 7.26 9.21 9.58 14.5-.1 52.61-.21 105.23-.35 157.84.75 9.23-2.8 17.97-4.4 26.93-1.98 7.35-3 14.97-5.5 22.17.68-51.02.28-102.05.69-153.08 0-22.79.1-45.57 0-68.36z"/><path fill="#fff" d="M284.56 621.18c1.24-1.68 2.6-3.66 5.01-3.26 3.47-.43 5.9 3.82 4.47 6.79-.55 1.95-2.68 2.55-4.32 3.29-.8-.25-2.39-.76-3.18-1.01-.68-1.93-1.34-3.88-1.98-5.81z"/><path fill="#fff" d="M313 621.63c6.95-2.88 14.91 4.57 12.74 11.71-1.1 6.7-10.09 10-15.31 5.69-6.34-4.25-4.7-15.12 2.57-17.4z"/><path fill="#fff" d="M159 629.77c5.12-2.02 10.9 3.75 8.92 8.92-1.19 4.18-6.06 5.72-9.91 4.47-1.19-1.1-2.37-2.22-3.52-3.36-1.24-3.83.26-8.92 4.51-10.03z"/><path fill="#fff" d="M50.78 647.13c1.88-6.05 5.76-11.31 8.78-16.85-.06 29.96-.02 59.93-.03 89.9-.15 20.67.31 41.37-.22 62.03-2.44-9.32-4.14-18.82-6.32-28.21-.76-4.28-2.23-8.45-2.36-12.82.01-31.35.03-62.7.15-94.05z"/><path fill="#fff" d="M181.53 633.45c1.13-.47 2.25-.94 3.38-1.42 1.63.99 4.03 1.84 3.92 4.16.63 3.7-3.97 5.78-6.8 3.81-.44-.61-1.3-1.84-1.73-2.46.31-1.39.73-2.76 1.23-4.09z"/><path fill="#fff" d="M431.31 631.12c2.87 5.65 6.79 10.95 8.51 17.08.14 26.66-.12 53.33-.1 80-.17 5.64.34 11.33-.37 16.95-2.82 12.61-5.56 25.23-8.21 37.87-.36-2.98-.54-5.97-.35-8.95.43-47.65 0-95.31.5-142.95z"/><path fill="#fff" d="M294.95 641.51c6.65-2.61 14.2 4.42 12.03 11.19-1.42 6.38-10.15 9.35-14.99 4.8-5.61-4.16-3.79-14.1 2.96-15.99z"/><path d="M192.91 642.34c2.19-.77 4.95-.79 6.75.87 2.85 2.23 2.97 7.1.24 9.48-2.84 2.88-8.39 1.77-9.99-1.94-1.48-3.02 0-6.99 3-8.41z"/><path fill="#fff" d="M191.01 648.25c.71-2.42 2.67-5.25 5.6-4.26 2.89.36 3.21 3.61 3.11 5.93-.8.75-1.61 1.5-2.41 2.25-1.21 0-2.42 0-3.62.1-.98-1.27-1.88-2.61-2.68-3.99z"/><path fill="#fff" d="M317.8 644.55c5.16-2.12 11.39 1.04 13.04 6.29 2.31 5.65-2.33 12.27-8.18 13.01-4.67.59-9.65-2.56-10.78-7.22-1.64-4.78 1.35-10.26 5.92-12.08z"/><path fill="#fff" d="M41.42 698.17c-.84-15.69 1.1-31.79 7.33-46.3-.25 26.79-.6 53.59-.08 80.37-1.87-5.58-2.67-11.44-3.99-17.16-1.04-5.64-2.57-11.21-3.26-16.91z"/><path fill="#fff" d="M309.32 652.56c-.1 2.97.7 5.88 2.28 8.4-2.34-.9-4.82-1.29-7.3-.83 2.25-2.1 4.18-4.56 5.02-7.57z"/><path fill="#fff" d="M441.87 652.61c5.24 11.74 7.01 24.75 7.67 37.5.53 8.09-1.74 15.93-3.35 23.77-1.42 6.38-2.52 12.83-4.3 19.13-.18-26.79.34-53.61 0-80.4z"/><path fill="#fff" d="M225.52 654.67c13.3-.18 26.6-.29 39.91-.37 0 6.62-.1 13.24-.12 19.86 0 7.69-3.21 15.82-9.77 20.2-7.08 4.27-17.13 3.83-23.27-1.93-4.34-4.2-6.34-10.3-6.73-16.21-.1-7.19 0-14.37 0-21.55z"/><path fill="#fff" d="M202.2 663.75c4.93-2.34 9.98-4.42 15.23-5.94 0 6.48-.25 12.98.15 19.46-1.85-1.26-3.54-3.25-5.96-3.19-4.15-.78-8.32 2.74-8.39 6.92-.68 4.78 4.46 9.14 9.08 7.93 1.99-.59 3.57-1.97 5.19-3.19-.26 3.15.24 6.45-.84 9.49-5.47 15.85-10.66 31.79-16.34 47.56-6.96 19.36-13.45 38.9-20.74 58.14-.12-9.03 0-18.05 0-27.07 3.31-3.73 4.17-9.52 1.1-13.66-1.74-1.96-1.41-4.57-1.42-6.98 3.61-1.37 7.17-4.06 7.73-8.14 1.27-5.35-2.88-10.42-7.95-11.67.1-3.52-.35-7.17 1.1-10.48 1.19-2.5-.39-5.01-1.15-7.36.14-11.33-1.14-23.32 4.33-33.74 4.28 3.4 10.48 4.36 15.25 1.41 6.72-3.82 8.36-13.45 3.67-19.49z"/><path fill="#fff" d="M273.7 691.25c0-11.13.1-22.27.22-33.41 7.62 2.43 15.16 5.44 21.67 10.17 3.93 2.92 7.23 6.59 10.33 10.37-1.59 1.38-3.46 2.67-4.29 4.7-.22 1.57-.16 3.17-.18 4.77 1.98 3.66 6.07 5.16 10.02 3.97 1.13 7.39.64 14.89.66 22.33 0 18.62-.29 37.23-.48 55.84-3.03 1.31-5.6 3.46-7.07 6.46-.11 1.43-.23 2.88-.38 4.33-1.98-4.44-3.41-9.1-5.03-13.67 6.58-2.3 10.38-9.95 7.86-16.53-2.29-6.25-9.9-9.7-16.12-7.28-5.53-15.8-10.61-31.75-16.13-47.54-.47-1.48-1.12-2.94-1.08-4.51z"/><path fill="#fff" d="M339.23 669.65c-1.91-5.16 1.57-10.88 6.74-12.21 2.12 5.91 4.41 11.77 6.66 17.63-5.01 2.23-11.69.1-13.4-5.42z"/><path fill="#fff" d="M184.11 664.59c3.72-4.3 10.27-4.34 14.8-1.31-6.42 3.8-11.97 8.98-16.12 15.19-2.14-4.39-2.42-10.26 1.32-13.88z"/><path fill="#fff" d="M303.9 662.61c2.88-1.73 7.05-.5 8.31 2.68 1.8 3.67-1.43 8.57-5.57 8.07-5.48.2-7.53-8.24-2.74-10.75z"/><path d="M161.73 665.37c6.35-1.21 13.06 4.18 13.01 10.72.38 5.01-3.12 9.97-7.99 11.23-6.27 2.22-13.86-2.54-14.43-9.23-.99-5.92 3.56-11.79 9.41-12.72z"/><path fill="#fff" d="M184.32 680.03c4.04-6.3 9.64-11.5 16.11-15.25 4.23 5.49 2.55 14.63-4.17 17.26-4 2.14-8.54.47-11.94-2.01z"/><path fill="#fff" d="M161.73 667.42c6.63-1.59 13.15 5.93 10.43 12.28-2 6.69-11.84 8.25-15.88 2.62-4.28-5.13-1.1-13.69 5.45-14.9z"/><path fill="#fff" d="M205.41 683.97c-.65-3.49.91-8.13 5.13-7.91 5.46-.63 7.96 7.7 3.04 10.16-2.91 2.11-6.15 0-8.17-2.25z"/><path fill="#fff" d="M303.35 683.61c1.17-1.14 2.37-2.24 3.64-3.25 1.64 2.95 2.94 6.07 3.98 9.29-1.83.32-3.95 1.1-5.53-.34-1.99-1.17-1.93-3.7-2.09-5.7z"/><path fill="#fff" d="M309.78 680.55c2.63 1.26 3.46 4.18 3.41 6.9-1.87-1.87-2.63-4.46-3.41-6.9z"/><path fill="#fff" d="M322.02 687.79c6.26-3 13.96 3.58 12.18 10.23-1.18 6.29-9.77 9.49-14.53 4.96-5.28-3.86-3.78-13.05 2.35-15.19z"/><path fill="#fff" d="M153.76 698.47c5.11-2.14 11.51 2.18 10.81 7.82 0 6.33-8.92 9.78-13.26 5.15-4.27-3.57-2.78-11.15 2.45-12.97z"/><path fill="#fff" d="M128.08 704.58c3.31 2.35 5.94 6.93 3.69 10.87-1.29 3.83-5.42 5.46-9.21 5.08 1.76-5.35 3.68-10.64 5.52-15.95z"/><path d="M192.97 711.78c4.57-2.2 10.5 2.37 9.66 7.38.29 5.59-7.34 8.98-11.5 5.36-4.53-3.1-3.52-11.12 1.84-12.74z"/><path fill="#fff" d="M193.81 713.63c3.28-1.58 7.51 2.04 6.79 5.58.1 3.73-5.08 6.29-7.99 3.8-3.63-2.12-2.82-8.2 1.2-9.38z"/><path fill="#fff" d="M167.58 715.28c2.73-2.27 6.64-1.26 9.16.82.1 3.11.1 6.22.1 9.34-2.46 1.9-5.93 3-8.77 1.21-4.04-2.3-4.41-8.78-.49-11.37z"/><path fill="#fff" d="M344.34 721.23c.85-1.86 2.04-3.7 4.19-4.16 1.61.2 2.76 1.47 4.03 2.37v3.6c-1.44.92-2.82 2.8-4.75 1.98-1.83-.5-2.53-2.36-3.45-3.79z"/><path fill="#fff" d="M327.68 726.44c5.06-1.29 10.69 2.1 12.28 7.03 2.23 5.53-1.36 12.47-7.17 13.87-6.42 2.18-13.93-3.48-13.5-10.28-.33-5.03 3.69-9.44 8.39-10.62z"/><path fill="#fff" d="M206 733.83c1.45-2.4 3.02-4.71 4.65-6.98 1.25 2.36 2.63 4.65 3.98 6.97H206z"/><path fill="#fff" d="M276.64 734.04c1.35-2.4 2.72-4.78 4.18-7.11 1.41 2.41 2.95 4.73 4.45 7.09-2.88 0-5.76-.1-8.63 0z"/><path fill="#fff" d="M160.94 730.54c2.49-1.54 6.16-.26 6.93 2.62 1.44 3.69-3.44 7.66-6.69 5.35-3.02-1.59-3.09-6.17-.24-7.97z"/><path fill="#fff" d="M169.39 742.15c.43-3.94 4.05-6.05 7.43-7.2.17 5.53.23 11.07.18 16.61-4.34-.89-8.48-4.62-7.61-9.41z"/><path fill="#fff" d="M205.38 734.86c3.98.3 7.96.21 11.94.1-.12 8.21-.1 16.43 0 24.65-5.39.2-10.48 4.1-11.05 9.64-1.18 6.56 4.52 12.64 11.02 12.68-.1 8.11-.1 16.22 0 24.33-12.35-.11-24.7-.1-37.05-.1 8.45-23.76 16.73-47.58 25.23-71.32z"/><path fill="#fff" d="M273.55 735.02c4.12.18 8.25.15 12.37.12.95 2.98 1.96 5.95 3 8.9-2.34 1.91-4.72 4.08-5.5 7.13-2.11 5.63.86 12.4 6.17 15.05 2.27 1.29 4.96 1.05 7.45 1.51 4.69 12.79 9.13 25.69 13.75 38.52-4.33-.11-8.67-.1-13 0-1.18-4.7-4.98-9.43-10.25-9.14-5.33-.55-9.92 4.06-10.67 9.12h-3.34c-.1-23.75.1-47.5 0-71.24z"/><path fill="#fff" d="M179.15 735.44c2.72 1.33 5.5 3.44 5.7 6.74.88 4.03-2.21 7.31-5.54 8.99-.13-5.24-.15-10.49-.16-15.73z"/><path fill="#fff" d="M137.99 739.32c4.29-2.08 9.78 2.03 8.62 6.73-.64 3.96-5.79 6.47-9.12 3.99-4.19-2.31-3.68-8.66.5-10.72z"/><path d="M352.82 742.69c6.37-1.78 13.36 3.85 12.93 10.47.25 6.21-6.08 11.45-12.13 10.24-6.28-.68-10.73-7.88-8.45-13.8 1.04-3.49 4.17-6.06 7.65-6.91z"/><path fill="#fff" d="M353.02 744.78c6.36-2.1 12.95 5.24 10.1 11.35-2.1 6.31-11.68 7.18-15.02 1.5-3.37-4.52-.46-11.62 4.92-12.85z"/><path fill="#fff" d="M291.48 745.1c6.53-2.4 14.68 2.86 14.1 10.03.37 4.57-3.23 8.23-7.08 10.07-2.43-6.67-4.68-13.4-7.02-20.1z"/><path fill="#fff" d="M285.1 757.07c-1.03-4.27 1.25-8.47 4.53-11.08 2.15 6.59 4.58 13.09 6.69 19.69-5.18.19-10.36-3.36-11.22-8.61z"/><path fill="#fff" d="M147.16 760.86c-3.7-2.28-3.5-7.38-.17-9.88.27 3.28.26 6.58.17 9.88z"/><path fill="#fff" d="M149.23 750.43c2.76.55 5.72 2.61 5.35 5.77.1 2.95-2.86 4.45-5.19 5.45-.1-3.74-.15-7.48-.16-11.22z"/><path fill="#fff" d="M166.53 758.28c3.26-2.07 7.54-1.39 10.6.74 0 4.77 0 9.54.13 14.31-3.38 2.58-8.54 2.99-11.86.11-4.93-3.65-4.34-12.33 1.13-15.16z"/><path fill="#fff" d="M315.69 766.04c-1.78-4.54 2.94-9.66 7.58-8.67 2.32.44 3.96 2.24 5.34 4.02v5.45c-1.19 1.27-2.25 2.82-3.93 3.48-3.47 1.63-8.01-.6-8.97-4.28z"/><path fill="#fff" d="M213.92 762.34c1.01-.11 2.5-1.25 3.26-.17.1 5.94 0 11.9-.1 17.85-2.26-.65-4.82-1.08-6.39-3.01-4.41-4.23-2.64-12.68 3.19-14.67z"/><path fill="#fff" d="M179.28 761.69c1.44 2.78 1.67 6 .1 8.78-.12-2.93-.15-5.86-.1-8.78z"/><path fill="#fff" d="M314.37 770.38c-1.5-.84-1.55-1.68-.15-2.52 1.45.85 1.51 1.7.15 2.52z"/><path fill="#fff" d="M313.74 771.77c3.65.16 7.33 2.2 8.32 5.92 2.13 5.39-2.93 11.05-8.41 10.98-.1-5.63.1-11.27.1-16.9z"/><path fill="#fff" d="M306.28 780.16c-.22-3.56 2.37-6.45 5.38-7.95-.32 5.25-.17 10.51-.29 15.78-2.87-1.56-5.39-4.35-5.09-7.83z"/><path d="M194.84 784.69c-1.95-4.33 1.88-9.97 6.65-9.59 3.29-.5 5.48 2.3 7.09 4.7.2 2.82.1 6.02-2.47 7.82-3.52 3.18-9.65 1.43-11.27-2.93z"/><path fill="#fff" d="M199.71 777.13h3.71c1.09 1.02 2.13 2.09 3.13 3.21v3.6c-1.32 1.48-2.77 3.63-5.07 3.28-3 .1-5.68-3.04-4.95-6.01.18-1.89 1.94-2.9 3.17-4.07z"/><path fill="#fff" d="M306.01 786.56c1.71 1.37 3.47 2.72 5.4 3.81-.11 3.45.19 6.93-.2 10.39-2.06-4.61-3.37-9.51-5.2-14.2z"/><path fill="#fff" d="M107.53 788.8c2.32 3.83 4.72 7.65 7.86 10.89-.21 31.16-.23 62.33-.36 93.5h-7.53c.1-34.8 0-69.6 0-104.39z"/><path fill="#fff" d="M375.6 800.03c2.75-3.26 5.17-6.75 7.46-10.34-.4 34.64-.1 69.28-.34 103.93-2.45 0-4.89 0-7.34.1.16-31.23 0-62.46.22-93.68z"/><path fill="#fff" d="M278.89 806.25c.99-3.91 4.37-7.6 8.7-7.14 4.16-.11 6.87 3.6 8.17 7.13-5.63-.1-11.25-.1-16.87 0z"/><path fill="#fff" d="M117.32 801.3c2.31 1.77 4.79 3.31 7.46 4.49 0 29.13-.1 58.26-.1 87.39h-7.54c0-30.63.22-61.26.15-91.89z"/><path fill="#fff" d="M365.61 806.53c2.76-1.32 5.37-2.92 7.89-4.65-.34 30.58-.11 61.17-.31 91.75-2.56 0-5.12 0-7.68-.1.18-29.02.12-58.04.1-87.05z"/><path fill="#fff" d="M126.79 806.66c6.89 2.13 14.1 1.27 21.19 1.3 1.39 3.78 3.42 7.46 6.68 9.96 5.24 4.19 13.62 4.68 18.74 0 3.02-2.56 4.7-6.24 6.14-9.83 12.54.11 25.08 0 37.62.1-.13 39.01-.14 78.01-.19 117.02-17.51-.13-35.03.1-52.55-.11-3.04-5.68-5.95-11.62-10.72-16.11-7.68-7.19-17.32-11.89-27.07-15.61.15-28.91.16-57.82.16-86.72z"/><path fill="#fff" d="M342.72 808.29c7-.27 14.18 1.13 20.98-1.18-.1 28.94-.26 57.88-.27 86.82-12.34 4.81-25.35 11.01-32.58 22.66-1.76 2.74-3.18 5.68-4.58 8.62-17.6 0-35.19-.1-52.79 0 .11-38.99 0-77.98.1-116.97 12.53.34 25.08-.17 37.6.15 1.51 3.07 2.62 6.46 5.15 8.9 5.21 5.85 15.12 5.41 20.65.24 2.81-2.43 4.32-5.9 5.75-9.24z"/><path fill="#fff" d="M95.7 895.13h9.74c-.1 9.95 0 19.89-.1 29.84-3.21-.1-6.42 0-9.63 0-.14-9.93 0-19.86 0-29.8z"/><path fill="#fff" d="M107.5 895.14h7.57c-.1 9.94-.1 19.9-.1 29.85h-7.51c.1-9.95.1-19.91 0-29.86z"/><path fill="#fff" d="M117.14 895.15c3.58 0 7.22-.29 10.73.6v29.34c-3.55-.11-7.1-.1-10.65 0-.15-9.99 0-19.97 0-29.95z"/><path fill="#fff" d="M362.31 896.2c3.57-.71 7.22-.52 10.84-.49.1 9.9-.14 19.8 0 29.7-3.65 0-7.3-.1-10.95-.1 0-9.7 0-19.41.1-29.12z"/><path fill="#fff" d="M375.37 895.65c2.45 0 4.9.1 7.36.11 0 9.9-.25 19.8.1 29.7h-7.46v-29.81z"/><path fill="#fff" d="M384.78 895.75h9.79c-.15 9.89-.14 19.79-.1 29.69h-9.74c0-9.9.1-19.81 0-29.71z"/><path fill="#fff" d="M130.01 925.02v-28.23c3.7 1.65 7.34 3.42 10.89 5.37-.1 7.65-.1 15.29 0 22.94-3.62-.1-7.23 0-10.84-.1z"/><path fill="#fff" d="M349.51 902.43c3.54-1.78 7.07-3.6 10.73-5.1 0 9.34-.14 18.68 0 28.03-3.59-.13-7.17-.14-10.75-.1v-22.83z"/><path fill="#fff" d="M143 903.44c2.33 1.51 4.58 3.15 6.82 4.8-.17 5.66 0 11.32-.1 16.98-2.25-.1-4.5-.11-6.75-.14-.1-7.22-.1-14.43 0-21.64z"/><path fill="#fff" d="M340.4 908.64c2.35-1.65 4.68-3.34 7.06-4.94 0 7.19-.1 14.38 0 21.57-2.36-.1-4.72-.1-7.08 0 .1-5.54.1-11.08 0-16.61z"/><path fill="#fff" d="M151.89 925.09c0-5.03-.15-10.05-.1-15.07 4.39 4.28 7.65 9.61 10.15 15.18-3.35-.1-6.71-.1-10.06-.11z"/><path fill="#fff" d="M328.47 925.24c2.71-5.26 5.53-10.59 9.85-14.73.1 4.9-.1 9.81.1 14.72-3.31-.1-6.61-.1-9.91 0z"/></svg>